# 3ds Max Wavefront OBJ Exporter v0.97b - (c)2007 guruware
# File Created: 04.10.2020 01:59:26

mtllib Box3.mtl

#
# object herb3
#

v  -42.3945 100.0633 43.0206
v  -27.1996 100.0633 42.8283
v  -27.3396 100.0633 29.9240
v  -42.6064 100.0633 30.0746
v  -42.3945 92.9279 50.1561
v  -46.4082 96.9416 48.3722
v  -47.7461 92.9279 48.3722
v  47.9427 92.9279 41.9676
v  46.1589 96.9416 45.9813
v  46.1589 92.9279 47.3192
v  -50.9512 92.9279 -43.8215
v  -49.1673 96.9416 -47.8352
v  -49.1673 92.9279 -49.1731
v  42.0259 92.9279 -50.4767
v  46.0396 96.9416 -48.6929
v  47.3774 92.9279 -48.6929
v  -42.3945 98.2794 48.3722
v  -27.1996 98.2794 48.1799
v  40.8073 100.0633 41.9676
v  46.1589 98.2794 41.9676
v  46.3405 98.2794 29.2501
v  40.9889 100.0633 29.2501
v  42.0259 100.0633 -43.3413
v  42.0259 98.2794 -48.6929
v  31.6083 98.2794 -48.7512
v  31.6083 100.0633 -43.3996
v  -43.8157 100.0633 -43.8215
v  -49.1673 98.2794 -43.8215
v  -48.9473 98.2794 -30.3803
v  -43.5957 100.0633 -30.3803
v  -47.7461 98.2795 43.0206
v  -49.5299 92.9279 43.0206
v  40.8073 98.2795 47.3192
v  40.8073 92.9279 49.1030
v  -43.8157 98.2795 -49.1731
v  -43.8157 92.9279 -50.9570
v  47.3774 98.2795 -43.3413
v  49.1613 92.9279 -43.3413
v  -27.1996 92.9279 49.9638
v  48.1244 92.9279 29.2501
v  31.6083 92.9279 -50.5350
v  -50.7312 92.9278 -30.3803
v  -47.7461 66.0234 48.3722
v  -42.3945 65.7146 50.1561
v  46.1589 74.4145 47.3192
v  47.9427 72.5114 41.9676
v  -49.1673 76.4701 -49.1731
v  -50.9512 80.8124 -43.8215
v  47.3774 73.4747 -48.6929
v  42.0259 74.8394 -50.4767
v  -49.5299 67.1580 43.0206
v  40.8073 73.9423 49.1030
v  -43.8157 71.7399 -50.9570
v  49.1613 73.7817 -43.3413
v  30.7100 92.9279 49.2308
v  30.7100 70.3820 49.2308
v  48.9727 92.9279 -30.1374
v  48.9727 72.5018 -30.1374
v  -28.1387 92.9279 -50.8693
v  -28.1387 66.1168 -50.8693
v  -49.7418 92.9279 30.0746
v  -49.7418 73.3464 30.0746
v  30.7100 100.0633 42.0954
v  30.8439 100.0633 29.3502
v  30.7100 98.2795 47.4470
v  17.1144 98.2794 -48.8322
v  17.1144 100.0633 -43.4807
v  17.1144 92.9279 -50.6161
v  16.6619 92.9279 49.4086
v  16.6619 69.3217 49.4086
v  31.6083 73.7307 -50.5350
v  16.6619 100.0633 42.2732
v  16.7294 100.0633 29.4894
v  16.6619 98.2794 47.6248
v  17.1144 71.4913 -50.6161
v  2.5983 98.2794 -48.9135
v  2.5983 100.0633 -43.5619
v  2.5983 92.9279 -50.6973
v  2.5922 92.9279 49.5867
v  2.5922 71.6459 49.5867
v  2.5922 100.0633 42.4513
v  2.5931 100.0633 29.6288
v  2.5922 98.2794 47.8029
v  -12.1486 98.2794 -48.9960
v  -12.1486 100.0633 -43.6444
v  -12.1486 92.9279 -50.7798
v  -11.7012 92.9279 49.7676
v  -11.7012 73.1179 49.7676
v  -11.7012 100.0633 42.6322
v  -11.7679 100.0633 29.7704
v  -11.7012 98.2794 47.9838
v  2.5983 73.5598 -50.6973
v  -12.1486 69.0913 -50.7798
v  -28.1387 98.2794 -49.0854
v  -28.1387 100.0633 -43.7338
v  -27.1996 69.2736 49.9638
v  -27.9934 100.0633 -30.3359
v  47.1888 98.2795 -30.1374
v  41.8372 100.0633 -30.1374
v  -48.7175 98.2795 -16.3380
v  -43.3659 100.0633 -16.3380
v  -50.5014 92.9279 -16.3380
v  48.7757 92.9279 -16.3430
v  48.7757 69.6376 -16.3430
v  31.4692 100.0633 -30.1668
v  17.0444 100.0633 -30.2078
v  2.5974 100.0633 -30.2489
v  -12.0793 100.0633 -30.2907
v  -27.8415 100.0633 -16.3389
v  46.9918 98.2795 -16.3430
v  41.6402 100.0633 -16.3430
v  -50.7312 77.2175 -30.3803
v  -50.5014 78.5684 -16.3380
v  31.3240 100.0633 -16.3424
v  16.9712 100.0633 -16.3416
v  2.5964 100.0633 -16.3407
v  -12.0070 100.0633 -16.3399
v  -48.4250 98.2795 1.5332
v  -43.0735 100.0633 1.5332
v  -50.2089 92.9279 1.5332
v  48.5249 92.9279 1.2126
v  48.5249 66.6061 1.2126
v  -27.6483 100.0633 1.4746
v  46.7410 98.2795 1.2126
v  41.3894 100.0633 1.2126
v  -50.2089 76.7598 1.5332
v  31.1392 100.0633 1.2515
v  16.8781 100.0633 1.3056
v  2.5952 100.0633 1.3598
v  -11.9149 100.0633 1.4149
v  -48.1838 98.2795 16.2730
v  -42.8322 100.0633 16.2730
v  -49.9677 92.9279 16.2730
v  48.3180 92.9279 15.6922
v  48.3180 67.1326 15.6922
v  -27.4889 100.0633 16.1669
v  46.5342 98.2795 15.6922
v  41.1826 100.0633 15.6922
v  -49.9677 77.8176 16.2730
v  30.9867 100.0633 15.7627
v  16.8013 100.0633 15.8608
v  2.5941 100.0633 15.9590
v  -11.8390 100.0633 16.0587
v  -47.9580 98.2795 30.0746
v  48.1244 69.4985 29.2501
v  11.6559 72.2691 -50.6466
v  10.5139 78.8765 -50.6530
v  9.1216 72.6303 -50.6608
v  -50.8193 84.1517 -35.7619
v  -50.8180 78.6366 -35.6860
v  -50.8602 79.3262 -38.2646
v  -35.2350 85.1900 50.0655
v  -36.4242 67.1130 50.0805
v  -32.6655 67.9934 50.0330
v  -42.5880 1.7197 42.5880
v  -42.5880 1.7197 -42.5880
v  42.5880 1.1454 -42.5880
v  42.5880 1.1454 42.5880
v  -41.2071 99.0418 41.7893
v  39.6331 99.0418 40.7662
v  40.8172 99.0418 -42.1213
v  -42.5880 99.0418 -42.5880
v  -42.5880 8.6527 49.5209
v  42.5880 6.9329 49.5209
v  39.6331 92.1088 47.6991
v  -41.2071 92.1088 48.7223
v  49.5209 6.9329 42.5880
v  49.5209 8.0783 -42.5880
v  47.7501 92.1088 -42.1213
v  46.5661 92.1088 40.7662
v  42.5880 8.0783 -49.5209
v  -42.5880 8.6527 -49.5209
v  -42.5880 92.1088 -49.5209
v  40.8172 92.1088 -49.0543
v  -49.5209 6.9329 -42.5880
v  -49.5209 7.1076 42.5880
v  -48.1400 92.1088 41.7893
v  -49.5209 92.1088 -42.5880
v  -46.4877 4.7529 47.7877
v  -42.5880 3.4530 47.7877
v  46.4877 2.8786 46.4877
v  42.5880 2.8786 47.7877
v  -47.7877 3.0332 -46.4877
v  -47.7877 1.7332 -42.5880
v  46.4877 2.8786 -46.4877
v  47.7877 2.8786 -42.5880
v  -45.1068 96.0086 46.9890
v  -46.4068 92.1088 46.9890
v  44.8328 96.0086 44.6660
v  44.8328 92.1088 45.9659
v  -47.7877 96.0086 -46.4877
v  -47.7877 92.1088 -47.7877
v  44.7169 96.0086 -47.3210
v  46.0168 92.1088 -47.3210
v  -47.7877 3.4530 42.5880
v  -42.5880 3.4530 -47.7877
v  42.5880 2.8786 -47.7877
v  47.7877 2.8786 42.5880
v  -41.2071 97.3085 46.9890
v  39.6331 97.3085 45.9659
v  44.8328 97.3085 40.7662
v  46.0168 97.3085 -42.1213
v  40.8172 97.3085 -47.3210
v  -42.5880 97.3085 -47.7877
v  -47.7877 97.3085 -42.5880
v  -46.4068 97.3085 41.7893
v  47.7877 6.9329 47.7877
v  -47.7877 7.1076 47.7877
v  47.7877 8.0783 -47.7877
v  -47.7877 6.9329 -47.7877
# 210 vertices

vn -0.1540 0.9754 0.1579
vn 0.0020 0.9871 0.1602
vn 0.0000 1.0000 -0.0000
vn -0.1602 0.9871 0.0026
vn -0.1272 0.1334 0.9829
vn -0.5310 0.5310 0.6604
vn -0.7215 0.1179 0.6823
vn 0.9811 0.1334 0.1404
vn 0.6604 0.5310 0.5310
vn 0.6823 0.1179 0.7215
vn -0.9831 0.1334 -0.1254
vn -0.6604 0.5310 -0.5310
vn -0.6823 0.1179 -0.7215
vn 0.1361 0.1334 -0.9817
vn 0.5310 0.5310 -0.6604
vn 0.7214 0.1179 -0.6824
vn -0.1134 0.7210 0.6836
vn 0.0089 0.7071 0.7071
vn 0.1562 0.9753 0.1564
vn 0.6809 0.7220 0.1229
vn 0.7071 0.7071 0.0101
vn 0.1602 0.9871 0.0023
vn 0.1571 0.9754 -0.1545
vn 0.1198 0.7217 -0.6818
vn 0.0040 0.7071 -0.7071
vn 0.0009 0.9871 -0.1602
vn -0.1563 0.9755 -0.1549
vn -0.6840 0.7208 -0.1121
vn -0.7070 0.7071 0.0116
vn -0.6959 0.6984 0.1673
vn -0.9741 0.1558 0.1639
vn 0.1660 0.6983 0.6963
vn 0.1621 0.1559 0.9744
vn -0.1596 0.6976 -0.6985
vn -0.1532 0.1560 -0.9758
vn 0.6995 0.6973 -0.1566
vn 0.9765 0.1560 -0.1489
vn 0.0125 0.1602 0.9870
vn 0.9870 0.1602 0.0141
vn 0.0055 0.1602 -0.9871
vn -0.9870 0.1602 0.0162
vn -0.6766 0.0000 0.7363
vn -0.1642 0.0000 0.9864
vn 0.7308 0.0000 0.6826
vn 0.9903 0.0000 0.1392
vn -0.5446 0.0000 -0.8387
vn -0.9857 0.0000 -0.1685
vn 0.7294 0.0000 -0.6841
vn 0.1689 0.0000 -0.9856
vn -0.9794 0.0000 0.2019
vn 0.1473 0.0000 0.9891
vn -0.0963 0.0000 -0.9954
vn 0.9885 0.0000 -0.1510
vn 0.0127 0.0000 0.9999
vn 0.9999 0.0000 0.0143
vn 0.0056 0.0000 -1.0000
vn -0.9999 0.0000 0.0164
vn 0.0127 -0.0000 0.9999
vn 0.0056 -0.0000 -1.0000
vn -0.1592 -0.9749 0.1559
vn -0.0046 -0.9871 -0.1602
vn 0.1301 -0.9825 -0.1334
vn 0.1301 -0.9825 0.1334
vn -0.1338 -0.1245 0.9832
vn 0.1544 -0.1830 0.9709
vn 0.1602 0.1691 0.9725
vn -0.1263 0.1393 0.9822
vn 0.9720 -0.1772 0.1545
vn 0.9769 -0.1445 -0.1573
vn 0.9748 0.1667 -0.1486
vn 0.9785 0.1521 0.1393
vn 0.1565 -0.1519 -0.9759
vn -0.1388 -0.1420 -0.9801
vn -0.1532 0.1559 -0.9758
vn 0.1351 0.1378 -0.9812
vn -0.9821 -0.1335 -0.1332
vn -0.9667 -0.2041 0.1544
vn -0.9728 0.1645 0.1633
vn -0.4729 -0.5723 0.6700
vn -0.1202 -0.7208 0.6827
vn 0.5091 -0.6940 0.5091
vn 0.1114 -0.7130 0.6923
vn -0.5647 -0.6149 -0.5505
vn -0.5564 -0.8219 -0.1223
vn 0.5310 -0.6604 -0.5310
vn 0.7215 -0.6823 -0.1179
vn -0.7201 0.1269 0.6822
vn 0.6797 0.1376 0.7205
vn 0.7194 0.1272 -0.6828
vn -0.6563 -0.7352 0.1697
vn -0.0677 -0.6834 -0.7269
vn 0.1155 -0.6830 -0.7212
vn 0.6925 -0.7123 0.1138
vn 0.6965 -0.1805 0.6945
vn -0.7163 -0.1846 0.6729
vn 0.7000 -0.1523 -0.6977
vn -0.6590 -0.1395 -0.7391
# 97 vertex normals

vt 0.9779 0.2989 0.0000
vt 0.9295 0.2982 0.0000
vt 0.9299 0.2571 0.0000
vt 0.9786 0.2576 0.0000
vt 0.9784 0.4402 0.0000
vt 0.9912 0.4274 0.0000
vt 0.9955 0.4402 0.0000
vt 0.9807 0.3345 0.0000
vt 0.9935 0.3217 0.0000
vt 0.9978 0.3345 0.0000
vt 0.0551 0.3062 0.0000
vt 0.0665 0.3203 0.0000
vt 0.0533 0.3232 0.0000
vt 0.3969 0.0176 0.0000
vt 0.4097 0.0048 0.0000
vt 0.4140 0.0176 0.0000
vt 0.9779 0.3159 0.0000
vt 0.9295 0.3153 0.0000
vt 0.7126 0.2955 0.0000
vt 0.6956 0.2955 0.0000
vt 0.6950 0.2549 0.0000
vt 0.7120 0.2549 0.0000
vt 0.7087 0.0235 0.0000
vt 0.7087 0.0064 0.0000
vt 0.7420 0.0062 0.0000
vt 0.7420 0.0233 0.0000
vt 0.9824 0.0220 0.0000
vt 0.9995 0.0220 0.0000
vt 0.9988 0.0648 0.0000
vt 0.9817 0.0648 0.0000
vt 0.9784 0.4231 0.0000
vt 0.9950 0.2989 0.0000
vt 0.9907 0.3159 0.0000
vt 0.0985 0.0152 0.0000
vt 0.1010 0.0326 0.0000
vt 0.0840 0.0308 0.0000
vt 0.0858 0.0139 0.0000
vt 0.9807 0.3175 0.0000
vt 0.7126 0.3126 0.0000
vt 0.6956 0.3083 0.0000
vt 0.6961 0.4274 0.0000
vt 0.7131 0.4231 0.0000
vt 0.7131 0.4402 0.0000
vt 0.6961 0.4402 0.0000
vt 0.0721 0.3080 0.0000
vt 0.9824 0.0049 0.0000
vt 0.9995 0.0092 0.0000
vt 0.1062 0.0048 0.0000
vt 0.1232 0.0005 0.0000
vt 0.1232 0.0176 0.0000
vt 0.1062 0.0176 0.0000
vt 0.3969 0.0005 0.0000
vt 0.6917 0.0235 0.0000
vt 0.6959 0.0064 0.0000
vt 0.6917 0.3217 0.0000
vt 0.7087 0.3175 0.0000
vt 0.7087 0.3345 0.0000
vt 0.6917 0.3345 0.0000
vt 0.9300 0.4402 0.0000
vt 0.9300 0.4231 0.0000
vt 0.9402 0.3345 0.0000
vt 0.9402 0.3175 0.0000
vt 0.3637 0.0176 0.0000
vt 0.3637 0.0005 0.0000
vt 0.0596 0.2636 0.0000
vt 0.0765 0.2654 0.0000
vt 0.9955 0.5260 0.0000
vt 0.9784 0.5270 0.0000
vt 0.9978 0.3936 0.0000
vt 0.9807 0.3996 0.0000
vt 0.0011 0.3177 0.0000
vt 0.0167 0.3022 0.0000
vt 0.4140 0.0796 0.0000
vt 0.3969 0.0752 0.0000
vt 0.0023 0.0223 0.0000
vt 0.0005 0.0049 0.0000
vt 0.7131 0.5007 0.0000
vt 0.6961 0.4992 0.0000
vt 0.1232 0.0851 0.0000
vt 0.1062 0.0700 0.0000
vt 0.7087 0.3956 0.0000
vt 0.6917 0.3966 0.0000
vt 0.7453 0.4402 0.0000
vt 0.7453 0.5121 0.0000
vt 0.7508 0.3345 0.0000
vt 0.7508 0.3997 0.0000
vt 0.1732 0.0176 0.0000
vt 0.1732 0.1030 0.0000
vt 0.0797 0.0719 0.0000
vt 0.0176 0.0654 0.0000
vt 0.7448 0.2959 0.0000
vt 0.7444 0.2553 0.0000
vt 0.7448 0.3130 0.0000
vt 0.7882 0.0060 0.0000
vt 0.7882 0.0231 0.0000
vt 0.7453 0.4231 0.0000
vt 0.3175 0.0176 0.0000
vt 0.3175 0.0005 0.0000
vt 0.7901 0.4402 0.0000
vt 0.7901 0.5155 0.0000
vt 0.3637 0.0788 0.0000
vt 0.7896 0.2965 0.0000
vt 0.7894 0.2557 0.0000
vt 0.7896 0.3135 0.0000
vt 0.7901 0.4231 0.0000
vt 0.3175 0.0859 0.0000
vt 0.8344 0.0057 0.0000
vt 0.8344 0.0228 0.0000
vt 0.2712 0.0176 0.0000
vt 0.2712 0.0005 0.0000
vt 0.8350 0.4402 0.0000
vt 0.8350 0.5080 0.0000
vt 0.8345 0.2970 0.0000
vt 0.8345 0.2562 0.0000
vt 0.8345 0.3141 0.0000
vt 0.8350 0.4231 0.0000
vt 0.8815 0.0055 0.0000
vt 0.8815 0.0225 0.0000
vt 0.2242 0.0176 0.0000
vt 0.2242 0.0005 0.0000
vt 0.8806 0.4402 0.0000
vt 0.8806 0.5034 0.0000
vt 0.8800 0.2976 0.0000
vt 0.8803 0.2566 0.0000
vt 0.8800 0.3147 0.0000
vt 0.8806 0.4231 0.0000
vt 0.2712 0.0793 0.0000
vt 0.2242 0.0936 0.0000
vt 0.9325 0.0052 0.0000
vt 0.9325 0.0222 0.0000
vt 0.1732 0.0005 0.0000
vt 0.9300 0.5156 0.0000
vt 0.9320 0.0650 0.0000
vt 0.6923 0.0656 0.0000
vt 0.7093 0.0656 0.0000
vt 0.9981 0.1096 0.0000
vt 0.9810 0.1096 0.0000
vt 0.7508 0.3175 0.0000
vt 0.0642 0.2191 0.0000
vt 0.0812 0.2208 0.0000
vt 0.7948 0.3345 0.0000
vt 0.7948 0.4088 0.0000
vt 0.7424 0.0655 0.0000
vt 0.7884 0.0654 0.0000
vt 0.8345 0.0652 0.0000
vt 0.8812 0.0651 0.0000
vt 0.9315 0.1096 0.0000
vt 0.6929 0.1096 0.0000
vt 0.7100 0.1096 0.0000
vt 0.7948 0.3175 0.0000
vt 0.0097 0.2584 0.0000
vt 0.0187 0.2143 0.0000
vt 0.7429 0.1096 0.0000
vt 0.7886 0.1096 0.0000
vt 0.8345 0.1096 0.0000
vt 0.8810 0.1096 0.0000
vt 0.9971 0.1666 0.0000
vt 0.9801 0.1666 0.0000
vt 0.0702 0.1624 0.0000
vt 0.0872 0.1642 0.0000
vt 0.8508 0.3345 0.0000
vt 0.8508 0.4185 0.0000
vt 0.9309 0.1664 0.0000
vt 0.6937 0.1656 0.0000
vt 0.7108 0.1656 0.0000
vt 0.8508 0.3175 0.0000
vt 0.0189 0.1570 0.0000
vt 0.7434 0.1657 0.0000
vt 0.7889 0.1658 0.0000
vt 0.8345 0.1660 0.0000
vt 0.8807 0.1662 0.0000
vt 0.9964 0.2136 0.0000
vt 0.9793 0.2136 0.0000
vt 0.0751 0.1157 0.0000
vt 0.0921 0.1174 0.0000
vt 0.8970 0.3345 0.0000
vt 0.8970 0.4168 0.0000
vt 0.9304 0.2132 0.0000
vt 0.6944 0.2117 0.0000
vt 0.7114 0.2117 0.0000
vt 0.8970 0.3175 0.0000
vt 0.0272 0.1106 0.0000
vt 0.7439 0.2119 0.0000
vt 0.7892 0.2123 0.0000
vt 0.8345 0.2126 0.0000
vt 0.8805 0.2129 0.0000
vt 0.9956 0.2576 0.0000
vt 0.0967 0.0737 0.0000
vt 0.9402 0.4092 0.0000
vt 0.3001 0.0834 0.0000
vt 0.2964 0.0624 0.0000
vt 0.2920 0.0823 0.0000
vt 0.0299 0.2777 0.0000
vt 0.0125 0.2757 0.0000
vt 0.0138 0.2841 0.0000
vt 0.9556 0.4649 0.0000
vt 0.9594 0.5225 0.0000
vt 0.9474 0.5197 0.0000
vt 0.2931 0.6629 0.0000
vt 0.0215 0.6629 0.0000
vt 0.0215 0.3913 0.0000
vt 0.2931 0.3913 0.0000
vt 0.3957 0.3578 0.0000
vt 0.3989 0.1001 0.0000
vt 0.6632 0.0963 0.0000
vt 0.6647 0.3623 0.0000
vt 0.3315 0.6673 0.0000
vt 0.3260 0.3957 0.0000
vt 0.5976 0.4051 0.0000
vt 0.5976 0.6629 0.0000
vt 0.6012 0.9842 0.0000
vt 0.3296 0.9806 0.0000
vt 0.3311 0.7127 0.0000
vt 0.5954 0.7127 0.0000
vt 0.9094 0.9806 0.0000
vt 0.6378 0.9787 0.0000
vt 0.6378 0.7127 0.0000
vt 0.9037 0.7127 0.0000
vt 0.0215 0.9798 0.0000
vt 0.0220 0.7083 0.0000
vt 0.2931 0.7108 0.0000
vt 0.2931 0.9798 0.0000
vt 0.3190 0.6797 0.0000
vt 0.3149 0.6673 0.0000
vt 0.3055 0.3788 0.0000
vt 0.3096 0.3913 0.0000
vt 0.0090 0.9923 0.0000
vt 0.0049 0.9798 0.0000
vt 0.0090 0.3788 0.0000
vt 0.0215 0.3747 0.0000
vt 0.6100 0.6753 0.0000
vt 0.5976 0.6794 0.0000
vt 0.6079 0.7002 0.0000
vt 0.6120 0.7127 0.0000
vt 0.3055 0.9923 0.0000
vt 0.2931 0.9964 0.0000
vt 0.9162 0.7002 0.0000
vt 0.9203 0.7127 0.0000
vt 0.2931 0.6794 0.0000
vt 0.0215 0.6794 0.0000
vt 0.0049 0.6629 0.0000
vt 0.0049 0.3913 0.0000
vt 0.2931 0.3747 0.0000
vt 0.3096 0.6629 0.0000
vt 0.3791 0.3578 0.0000
vt 0.3824 0.1001 0.0000
vt 0.3989 0.0835 0.0000
vt 0.6632 0.0797 0.0000
vt 0.6798 0.0963 0.0000
vt 0.6813 0.3623 0.0000
vt 0.6647 0.3788 0.0000
vt 0.3957 0.3744 0.0000
vt 0.3260 0.3791 0.0000
vt 0.5976 0.3885 0.0000
vt 0.3266 0.6838 0.0000
vt 0.3131 0.9806 0.0000
vt 0.3146 0.7127 0.0000
vt 0.6212 0.9842 0.0000
vt 0.6212 0.7127 0.0000
vt 0.0220 0.6917 0.0000
vt 0.0104 0.7083 0.0000
vt 0.0145 0.6917 0.0000
vt 0.3096 0.6753 0.0000
vt 0.6012 0.9972 0.0000
vt 0.6178 0.9842 0.0000
vt 0.6137 0.9972 0.0000
vt 0.3131 0.3833 0.0000
vt 0.3131 0.3957 0.0000
vt 0.0215 0.9964 0.0000
vt 0.6378 0.9953 0.0000
vt 0.6212 0.9967 0.0000
vt 0.0090 0.6794 0.0000
vt 0.9094 0.9972 0.0000
vt 0.9260 0.9806 0.0000
vt 0.9218 0.9972 0.0000
vt 0.3172 0.9972 0.0000
vt 0.3296 0.9972 0.0000
vt 0.6142 0.6629 0.0000
vt 0.3791 0.3703 0.0000
vt 0.3055 0.6942 0.0000
vt 0.3096 0.7108 0.0000
vt 0.2931 0.6942 0.0000
vt 0.5954 0.6961 0.0000
vt 0.3865 0.0835 0.0000
vt 0.6100 0.3885 0.0000
vt 0.6142 0.4051 0.0000
vt 0.3096 0.9798 0.0000
vt 0.6771 0.3788 0.0000
vt 0.6212 0.7002 0.0000
vt 0.6378 0.6961 0.0000
vt 0.9037 0.6961 0.0000
vt 0.6798 0.0839 0.0000
vt 0.3146 0.7002 0.0000
vt 0.3311 0.6961 0.0000
# 294 texture coords

o herb3
g herb3
usemtl wire_027177027
s 1
f 1/1/1 2/2/2 3/3/3 4/4/4 
s 2
f 5/5/5 6/6/6 7/7/7 
s 4
f 8/8/8 9/9/9 10/10/10 
f 11/11/11 12/12/12 13/13/13 
s 2
f 14/14/14 15/15/15 16/16/16 
s 1
f 1/1/1 17/17/17 18/18/18 2/2/2 
f 19/19/19 20/20/20 21/21/21 22/22/22 
f 23/23/23 24/24/24 25/25/25 26/26/26 
f 27/27/27 28/28/28 29/29/29 30/30/4 
s 2
f 5/5/5 17/31/17 6/6/6 
s 1
f 17/17/17 1/1/1 31/32/30 6/33/6 
s 4
f 6/34/6 31/35/30 32/36/31 7/37/7 
f 8/8/8 20/38/20 9/9/9 
s 1
f 20/20/20 19/19/19 33/39/32 9/40/9 
s 2
f 9/41/9 33/42/32 34/43/33 10/44/10 
s 4
f 11/11/11 28/45/28 12/12/12 
s 1
f 28/28/28 27/27/27 35/46/34 12/47/12 
s 2
f 12/48/12 35/49/34 36/50/35 13/51/13 
f 14/14/14 24/52/24 15/15/15 
s 1
f 24/24/24 23/23/23 37/53/36 15/54/15 
s 4
f 15/55/15 37/56/36 38/57/37 16/58/16 
s 2
f 17/31/17 5/5/5 39/59/38 18/60/18 
s 4
f 20/38/20 8/8/8 40/61/39 21/62/21 
s 2
f 24/52/24 14/14/14 41/63/40 25/64/25 
s 4
f 28/45/28 11/11/11 42/65/41 29/66/29 
s off
f 5/5/5 7/7/7 43/67/42 44/68/43 
f 8/8/8 10/10/10 45/69/44 46/70/45 
f 11/11/11 13/13/13 47/71/46 48/72/47 
f 14/14/14 16/16/16 49/73/48 50/74/49 
f 7/37/7 32/36/31 51/75/50 43/76/42 
f 10/44/10 34/43/33 52/77/51 45/78/44 
f 13/51/13 36/50/35 53/79/52 47/80/46 
f 16/58/16 38/57/37 54/81/53 49/82/48 
f 34/43/33 55/83/38 56/84/54 52/77/51 
f 38/57/37 57/85/39 58/86/55 54/81/53 
f 36/50/35 59/87/40 60/88/56 53/79/52 
f 32/36/31 61/89/41 62/90/57 51/75/50 
s 1
f 63/91/2 19/19/19 22/22/22 64/92/3 
f 65/93/18 33/39/32 19/19/19 63/91/2 
f 25/25/25 66/94/25 67/95/26 26/26/26 
s 2
f 55/83/38 34/43/33 33/42/32 65/96/18 
f 41/63/40 68/97/40 66/98/25 25/64/25 
s off
f 55/83/38 69/99/38 70/100/54 56/84/54 
f 41/63/40 14/14/14 50/74/49 71/101/56 
s 1
f 72/102/2 63/91/2 64/92/3 73/103/3 
f 74/104/18 65/93/18 63/91/2 72/102/2 
s 2
f 69/99/38 55/83/38 65/96/18 74/105/18 
s off
f 68/97/40 41/63/40 71/101/56 75/106/56 
s 1
f 66/94/25 76/107/25 77/108/26 67/95/26 
s 2
f 68/97/40 78/109/40 76/110/25 66/98/25 
s off
f 69/99/38 79/111/38 80/112/54 70/100/54 
s 1
f 81/113/2 72/102/2 73/103/3 82/114/3 
f 83/115/18 74/104/18 72/102/2 81/113/2 
s 2
f 79/111/38 69/99/38 74/105/18 83/116/18 
s 1
f 76/107/25 84/117/25 85/118/26 77/108/26 
s 2
f 78/109/40 86/119/40 84/120/25 76/110/25 
s off
f 79/111/38 87/121/38 88/122/58 80/112/54 
s 1
f 89/123/2 81/113/2 82/114/3 90/124/3 
f 91/125/18 83/115/18 81/113/2 89/123/2 
s 2
f 87/121/38 79/111/38 83/116/18 91/126/18 
s off
f 86/119/40 78/109/40 92/127/56 93/128/56 
s 1
f 84/117/25 94/129/25 95/130/26 85/118/26 
s 2
f 86/119/40 59/87/40 94/131/25 84/120/25 
s off
f 87/121/38 39/59/38 96/132/54 88/122/58 
s 1
f 2/2/2 89/123/2 90/124/3 3/3/3 
f 18/18/18 91/125/18 89/123/2 2/2/2 
s 2
f 39/59/38 87/121/38 91/126/18 18/60/18 
s off
f 59/87/40 86/119/40 93/128/56 60/88/56 
s 1
f 94/129/25 35/46/34 27/27/27 95/130/26 
s 2
f 59/87/40 36/50/35 35/49/34 94/131/25 
s 1
f 97/133/3 95/130/26 27/27/27 30/30/4 
f 98/134/21 37/53/36 23/23/23 99/135/22 
f 29/29/29 100/136/29 101/137/4 30/30/4 
s 4
f 57/85/39 38/57/37 37/56/36 98/138/21 
f 42/65/41 102/139/41 100/140/29 29/66/29 
s off
f 57/85/39 103/141/39 104/142/55 58/86/55 
s 1
f 99/135/22 23/23/23 26/26/26 105/143/3 
f 105/143/3 26/26/26 67/95/26 106/144/3 
f 106/144/3 67/95/26 77/108/26 107/145/3 
f 107/145/3 77/108/26 85/118/26 108/146/3 
f 108/146/3 85/118/26 95/130/26 97/133/3 
f 109/147/3 97/133/3 30/30/4 101/137/4 
f 110/148/21 98/134/21 99/135/22 111/149/22 
s 4
f 103/141/39 57/85/39 98/138/21 110/150/21 
s off
f 102/139/41 42/65/41 112/151/57 113/152/57 
s 1
f 111/149/22 99/135/22 105/143/3 114/153/3 
f 114/153/3 105/143/3 106/144/3 115/154/3 
f 115/154/3 106/144/3 107/145/3 116/155/3 
f 116/155/3 107/145/3 108/146/3 117/156/3 
f 117/156/3 108/146/3 97/133/3 109/147/3 
f 100/136/29 118/157/29 119/158/4 101/137/4 
s 4
f 102/139/41 120/159/41 118/160/29 100/140/29 
s off
f 103/141/39 121/161/39 122/162/55 104/142/55 
s 1
f 123/163/3 109/147/3 101/137/4 119/158/4 
f 124/164/21 110/148/21 111/149/22 125/165/22 
s 4
f 121/161/39 103/141/39 110/150/21 124/166/21 
s off
f 120/159/41 102/139/41 113/152/57 126/167/57 
s 1
f 125/165/22 111/149/22 114/153/3 127/168/3 
f 127/168/3 114/153/3 115/154/3 128/169/3 
f 128/169/3 115/154/3 116/155/3 129/170/3 
f 129/170/3 116/155/3 117/156/3 130/171/3 
f 130/171/3 117/156/3 109/147/3 123/163/3 
f 118/157/29 131/172/29 132/173/4 119/158/4 
s 4
f 120/159/41 133/174/41 131/175/29 118/160/29 
s off
f 121/161/39 134/176/39 135/177/55 122/162/55 
s 1
f 136/178/3 123/163/3 119/158/4 132/173/4 
f 137/179/21 124/164/21 125/165/22 138/180/22 
s 4
f 134/176/39 121/161/39 124/166/21 137/181/21 
s off
f 133/174/41 120/159/41 126/167/57 139/182/57 
s 1
f 138/180/22 125/165/22 127/168/3 140/183/3 
f 140/183/3 127/168/3 128/169/3 141/184/3 
f 141/184/3 128/169/3 129/170/3 142/185/3 
f 142/185/3 129/170/3 130/171/3 143/186/3 
f 143/186/3 130/171/3 123/163/3 136/178/3 
f 131/172/29 144/187/29 4/4/4 132/173/4 
s 4
f 133/174/41 61/89/41 144/188/29 131/175/29 
s off
f 134/176/39 40/61/39 145/189/55 135/177/55 
s 1
f 3/3/3 136/178/3 132/173/4 4/4/4 
f 21/21/21 137/179/21 138/180/22 22/22/22 
s 4
f 40/61/39 134/176/39 137/181/21 21/62/21 
s off
f 61/89/41 133/174/41 139/182/57 62/90/57 
s 1
f 22/22/22 138/180/22 140/183/3 64/92/3 
f 64/92/3 140/183/3 141/184/3 73/103/3 
f 73/103/3 141/184/3 142/185/3 82/114/3 
f 82/114/3 142/185/3 143/186/3 90/124/3 
f 90/124/3 143/186/3 136/178/3 3/3/3 
f 144/187/29 31/32/30 1/1/1 4/4/4 
s 4
f 61/89/41 32/36/31 31/35/30 144/188/29 
s off
f 40/61/39 8/8/8 46/70/45 145/189/55 
f 68/97/40 75/106/56 146/190/59 147/191/59 
f 147/191/59 148/192/59 92/127/56 78/109/40 
f 78/109/40 68/97/40 147/191/59 
f 42/65/41 11/11/11 149/193/57 
f 149/193/57 150/194/57 112/151/57 42/65/41 
f 11/11/11 48/72/47 151/195/57 149/193/57 
f 152/196/58 5/5/5 44/68/43 153/197/58 
f 154/198/58 96/132/54 39/59/38 152/196/58 
f 152/196/58 39/59/38 5/5/5 
s 1
f 155/199/60 156/200/61 157/201/62 158/202/63 
f 159/203/1 160/204/19 161/205/23 162/206/27 
s 2
f 163/207/64 164/208/65 165/209/66 166/210/67 
s 4
f 167/211/68 168/212/69 169/213/70 170/214/71 
s 2
f 171/215/72 172/216/73 173/217/74 174/218/75 
s 4
f 175/219/76 176/220/77 177/221/78 178/222/11 
s 2
f 163/207/64 179/223/79 180/224/80 
s 1
f 158/202/63 181/225/81 182/226/82 
s 4
f 175/219/76 183/227/83 184/228/84 
s 1
f 157/201/62 185/229/85 186/230/86 
s 2
f 166/210/67 187/231/6 188/232/87 
s 4
f 170/214/71 189/233/9 190/234/88 
f 178/222/11 191/235/12 192/236/13 
s 2
f 174/218/75 193/237/15 194/238/89 
s 1
f 155/199/60 195/239/90 184/240/84 156/200/61 
f 156/200/61 196/241/91 197/242/92 157/201/62 
f 157/201/62 186/230/86 198/243/93 158/202/63 
f 158/202/63 182/226/82 180/244/80 155/199/60 
f 159/203/1 199/245/17 200/246/32 160/204/19 
f 160/204/19 201/247/20 202/248/36 161/205/23 
f 161/205/23 203/249/24 204/250/34 162/206/27 
f 162/206/27 205/251/28 206/252/30 159/203/1 
s 2
f 164/208/65 207/253/94 190/254/88 165/209/66 
f 166/210/67 188/232/87 208/255/95 163/207/64 
s 4
f 168/212/69 209/256/96 194/257/89 169/213/70 
s 2
f 172/216/73 210/258/97 192/259/13 173/217/74 
f 163/207/64 208/255/95 179/223/79 
s 4
f 208/260/95 176/220/77 195/261/90 179/262/79 
s 1
f 179/263/79 195/239/90 155/199/60 180/244/80 
f 158/202/63 198/243/93 181/225/81 
s 4
f 198/264/93 167/211/68 207/265/94 181/266/81 
s 2
f 181/267/81 207/253/94 164/208/65 182/268/82 
s 4
f 175/219/76 210/269/97 183/227/83 
s 2
f 210/258/97 172/216/73 196/270/91 183/271/83 
s 1
f 183/272/83 196/241/91 156/200/61 184/240/84 
f 157/201/62 197/242/92 185/229/85 
s 2
f 197/273/92 171/215/72 209/274/96 185/275/85 
s 4
f 185/276/85 209/256/96 168/212/69 186/277/86 
s 2
f 166/210/67 199/278/17 187/231/6 
s 1
f 199/245/17 159/203/1 206/252/30 187/279/6 
s 4
f 187/280/6 206/281/30 177/221/78 188/282/87 
f 170/214/71 201/283/20 189/233/9 
s 1
f 201/247/20 160/204/19 200/246/32 189/284/9 
s 2
f 189/285/9 200/286/32 165/209/66 190/254/88 
s 4
f 178/222/11 205/287/28 191/235/12 
s 1
f 205/251/28 162/206/27 204/250/34 191/288/12 
s 2
f 191/289/12 204/290/34 173/217/74 192/259/13 
f 174/218/75 203/291/24 193/237/15 
s 1
f 203/249/24 161/205/23 202/248/36 193/292/15 
s 4
f 193/293/15 202/294/36 169/213/70 194/257/89 
f 195/261/90 176/220/77 175/219/76 184/228/84 
s 2
f 196/270/91 172/216/73 171/215/72 197/273/92 
s 4
f 186/277/86 168/212/69 167/211/68 198/264/93 
s 2
f 182/268/82 164/208/65 163/207/64 180/224/80 
f 199/278/17 166/210/67 165/209/66 200/286/32 
s 4
f 201/283/20 170/214/71 169/213/70 202/294/36 
s 2
f 203/291/24 174/218/75 173/217/74 204/290/34 
s 4
f 205/287/28 178/222/11 177/221/78 206/281/30 
f 207/265/94 167/211/68 170/214/71 190/234/88 
f 188/282/87 177/221/78 176/220/77 208/260/95 
s 2
f 209/274/96 171/215/72 174/218/75 194/238/89 
s 4
f 210/269/97 175/219/76 178/222/11 192/236/13 
# 173 polygons - 27 triangles

