# 3ds Max Wavefront OBJ Exporter v0.97b - (c)2007 guruware
# File Created: 04.10.2020 02:00:50

mtllib Fence.mtl

#
# object Box008
#

v  24.9109 0.0000 0.5004
v  24.9109 0.0000 -0.4637
v  25.9109 0.0000 -1.4637
v  33.5802 0.0000 1.5004
v  33.5802 0.0000 -1.4637
v  34.5802 0.0000 -0.4637
v  34.5802 0.0000 0.5004
v  25.9109 0.0000 1.5004
v  35.1248 50.1876 2.2485
v  22.7653 52.3669 2.2485
v  36.1096 50.0140 -1.2118
v  36.1096 50.0140 1.2485
v  22.7653 52.3669 -2.2118
v  35.1248 50.1876 -2.2118
v  21.7805 52.5405 1.2485
v  21.7805 52.5405 -1.2118
v  30.3850 59.4438 2.2485
v  30.6812 61.1234 -1.2118
v  30.6804 61.1188 1.2485
v  30.3864 59.4513 -2.2118
v  3.9076 0.0000 0.8971
v  3.9076 0.0000 -0.8604
v  4.5109 0.0000 -1.4637
v  12.9736 0.0000 1.5004
v  12.9736 0.0000 -1.4637
v  13.5769 0.0000 -0.8604
v  13.5769 0.0000 0.8971
v  4.5109 0.0000 1.5004
v  15.9113 58.0193 2.2485
v  2.6186 56.8564 2.2485
v  16.5123 58.0719 -1.6085
v  16.5123 58.0719 1.6452
v  2.6186 56.8564 -2.2118
v  15.9113 58.0193 -2.2118
v  2.0176 56.8038 1.6452
v  2.0176 56.8038 -1.6085
v  9.2358 67.7837 -0.7989
v  7.5510 67.0159 -0.7989
v  7.0020 66.7657 -0.1956
v  7.5510 67.0159 0.8356
v  7.0020 66.7657 0.2323
v  9.2358 67.7837 0.8356
v  9.7848 68.0338 0.2323
v  9.7848 68.0338 -0.1956
v  -38.0889 41.3326 0.4364
v  -38.0889 41.3326 -0.1389
v  -38.5924 35.5770 -0.1389
v  -38.5924 35.5770 0.4364
v  38.1608 28.7472 -0.1388
v  38.6644 34.5028 -0.1388
v  38.6644 34.5028 0.4364
v  38.1608 28.7472 0.4364
v  -38.1548 35.0006 -0.1389
v  37.4624 28.3850 -0.1388
v  37.4624 28.3850 0.4364
v  -38.1548 35.0006 0.4364
v  -37.6102 41.2255 -0.3259
v  38.0070 34.6099 -0.3259
v  37.5034 28.8543 -0.3259
v  -38.1138 35.4699 -0.3259
v  -37.5692 41.6948 0.4364
v  38.0481 35.0791 0.4364
v  38.0481 35.0791 -0.1388
v  -37.5692 41.6948 -0.1389
v  -38.1138 35.4699 0.6234
v  37.5034 28.8543 0.6235
v  38.0070 34.6099 0.6235
v  -37.6102 41.2255 0.6234
v  -38.1827 16.0425 0.4364
v  -38.1827 16.0425 -0.1389
v  -37.9714 10.2688 -0.1389
v  -37.9714 10.2688 0.4364
v  39.0377 12.9723 -0.1388
v  38.8264 18.7460 -0.1388
v  38.8264 18.7460 0.4364
v  39.0377 12.9723 0.4364
v  -37.4660 9.7509 -0.1389
v  38.3893 12.5266 -0.1388
v  38.3893 12.5266 0.4364
v  -37.4660 9.7509 0.4364
v  -37.6945 15.9954 -0.3259
v  38.1608 18.7711 -0.3259
v  38.3721 12.9974 -0.3259
v  -37.4832 10.2217 -0.3259
v  -37.7117 16.4661 0.4364
v  38.1436 19.2418 0.4364
v  38.1436 19.2418 -0.1388
v  -37.7117 16.4661 -0.1389
v  -37.4832 10.2217 0.6234
v  38.3721 12.9974 0.6235
v  38.1608 18.7711 0.6235
v  -37.6945 15.9954 0.6234
v  -15.0551 0.0000 0.5004
v  -15.0551 0.0000 -0.4637
v  -14.0551 0.0000 -1.4637
v  -6.3858 0.0000 1.5004
v  -6.3858 0.0000 -1.4637
v  -5.3858 0.0000 -0.4637
v  -5.3858 0.0000 0.5004
v  -14.0551 0.0000 1.5004
v  -3.9454 52.8214 2.2485
v  -16.4955 52.8214 2.2485
v  -2.9454 52.8214 -1.2118
v  -2.9454 52.8214 1.2485
v  -16.4955 52.8214 -2.2118
v  -3.9454 52.8214 -2.2118
v  -17.4955 52.8214 1.2485
v  -17.4955 52.8214 -1.2118
v  -10.2204 61.1139 2.2485
v  -10.2204 62.8195 -1.2118
v  -10.2204 62.8147 1.2485
v  -10.2204 61.1216 -2.2118
v  -33.4238 0.0000 0.5004
v  -33.4238 0.0000 -0.4637
v  -32.4238 0.0000 -1.4637
v  -24.7546 0.0000 1.5004
v  -24.7546 0.0000 -1.4637
v  -23.7546 0.0000 -0.4637
v  -23.7546 0.0000 0.5004
v  -32.4238 0.0000 1.5004
v  -23.2099 53.0582 2.2485
v  -35.5694 54.6517 2.2485
v  -22.2251 52.8846 -1.2118
v  -22.2251 52.8846 1.2485
v  -35.5694 54.6517 -2.2118
v  -23.2099 53.0582 -2.2118
v  -36.5542 54.8254 1.2485
v  -36.5542 54.8254 -1.2118
v  -29.7792 62.8226 2.2485
v  -29.4831 64.5022 -1.2118
v  -29.4839 64.4975 1.2485
v  -29.7779 62.8301 -2.2118
# 132 vertices

vn -0.6992 -0.6528 0.2916
vn -0.6992 -0.6528 -0.2916
vn -0.2842 -0.6435 -0.7107
vn 0.2901 -0.6398 0.7117
vn 0.2901 -0.6398 -0.7117
vn 0.7077 -0.6430 -0.2927
vn 0.7077 -0.6430 0.2927
vn -0.2842 -0.6435 0.7107
vn 0.4399 0.1166 0.8904
vn -0.4315 0.1946 0.8809
vn 0.9182 0.1810 -0.3524
vn 0.9182 0.1811 0.3524
vn -0.4315 0.1945 -0.8809
vn 0.4399 0.1165 -0.8905
vn -0.8772 0.3290 0.3496
vn -0.8772 0.3289 -0.3496
vn 0.0677 0.3840 0.9208
vn 0.1584 0.8985 -0.4093
vn 0.1583 0.8977 0.4112
vn 0.0678 0.3845 -0.9206
vn -0.7070 -0.6436 0.2930
vn -0.7070 -0.6436 -0.2930
vn -0.2897 -0.6395 -0.7121
vn 0.2862 -0.6418 0.7115
vn 0.2862 -0.6418 -0.7115
vn 0.7019 -0.6495 -0.2923
vn 0.7019 -0.6495 0.2923
vn -0.2897 -0.6395 0.7121
vn 0.4172 0.1781 0.8912
vn -0.4232 0.1525 0.8931
vn 0.8950 0.2558 -0.3654
vn 0.8950 0.2558 0.3654
vn -0.4232 0.1525 -0.8931
vn 0.4172 0.1781 -0.8912
vn -0.9087 0.2029 0.3649
vn -0.9087 0.2029 -0.3649
vn -0.0548 0.7378 -0.6728
vn -0.4259 0.6505 -0.6289
vn -0.7140 0.6766 -0.1799
vn -0.4259 0.6505 0.6289
vn -0.7140 0.6766 0.1799
vn -0.0548 0.7378 0.6728
vn 0.3095 0.9134 0.2645
vn 0.3095 0.9134 -0.2645
vn -0.7541 0.4237 0.5018
vn -0.7541 0.4237 -0.5018
vn -0.8351 -0.2232 -0.5028
vn -0.8351 -0.2232 0.5028
vn 0.7159 -0.4625 -0.5231
vn 0.8000 0.2887 -0.5259
vn 0.8000 0.2887 0.5259
vn 0.7159 -0.4625 0.5231
vn -0.4060 -0.7677 -0.4959
vn 0.1587 -0.8419 -0.5158
vn 0.1587 -0.8419 0.5158
vn -0.4060 -0.7677 0.4959
vn -0.1514 0.1892 -0.9702
vn 0.1544 0.1743 -0.9725
vn 0.1108 -0.1901 -0.9755
vn -0.2020 -0.1704 -0.9645
vn -0.2113 0.8363 0.5059
vn 0.3412 0.7907 0.5083
vn 0.3412 0.7907 -0.5083
vn -0.2113 0.8363 -0.5059
vn -0.2020 -0.1704 0.9645
vn 0.1108 -0.1901 0.9755
vn 0.1544 0.1743 0.9725
vn -0.1514 0.1892 0.9702
vn -0.8007 0.3273 0.5018
vn -0.8007 0.3272 -0.5019
vn -0.8011 -0.3246 -0.5028
vn -0.8011 -0.3246 0.5028
vn 0.7675 -0.3705 -0.5231
vn 0.7582 0.3853 -0.5259
vn 0.7582 0.3853 0.5259
vn 0.7675 -0.3705 0.5231
vn -0.3080 -0.8119 -0.4959
vn 0.2615 -0.8159 -0.5157
vn 0.2615 -0.8159 0.5157
vn -0.3080 -0.8119 0.4959
vn -0.1736 0.1691 -0.9702
vn 0.1317 0.1920 -0.9725
vn 0.1334 -0.1750 -0.9755
vn -0.1794 -0.1940 -0.9645
vn -0.3130 0.8038 0.5059
vn 0.2409 0.8268 0.5083
vn 0.2409 0.8268 -0.5083
vn -0.3130 0.8038 -0.5058
vn -0.1794 -0.1940 0.9645
vn 0.1334 -0.1750 0.9755
vn 0.1317 0.1920 0.9725
vn -0.1736 0.1691 0.9702
vn -0.7032 -0.6482 0.2922
vn -0.7032 -0.6482 -0.2922
vn -0.2870 -0.6416 -0.7113
vn 0.2870 -0.6416 0.7113
vn 0.2870 -0.6416 -0.7113
vn 0.7032 -0.6482 -0.2922
vn 0.7032 -0.6482 0.2922
vn -0.2870 -0.6416 0.7113
vn 0.4366 0.1577 0.8857
vn -0.4366 0.1577 0.8857
vn 0.9008 0.2543 -0.3520
vn 0.9008 0.2543 0.3519
vn -0.4366 0.1575 -0.8857
vn 0.4366 0.1575 -0.8857
vn -0.9008 0.2544 0.3519
vn -0.9008 0.2543 -0.3520
vn 0.0000 0.3900 0.9208
vn 0.0000 0.9124 -0.4093
vn -0.0000 0.9115 0.4112
vn 0.0000 0.3905 -0.9206
vn -0.6999 -0.6519 0.2918
vn -0.6999 -0.6519 -0.2918
vn -0.2847 -0.6430 -0.7110
vn 0.2905 -0.6393 0.7120
vn 0.2905 -0.6393 -0.7120
vn 0.7083 -0.6423 -0.2930
vn 0.7083 -0.6423 0.2930
vn -0.2847 -0.6430 0.7110
vn 0.4490 0.1615 0.8788
vn -0.4305 0.1268 0.8936
vn 0.9108 0.2258 -0.3457
vn 0.9107 0.2259 0.3457
vn -0.4305 0.1267 -0.8937
vn 0.4490 0.1614 -0.8788
vn -0.8979 0.2577 0.3568
vn -0.8979 0.2576 -0.3569
vn -0.0882 0.4079 0.9087
vn 0.0424 0.9124 -0.4071
vn 0.0422 0.9116 0.4089
vn -0.0882 0.4084 -0.9085
# 132 vertex normals

vt 1.0000 0.3374 0.0000
vt 1.0000 0.6626 0.0000
vt 0.8966 1.0000 0.0000
vt 0.1034 0.0000 0.0000
vt 0.1034 1.0000 0.0000
vt 0.0000 0.6626 0.0000
vt 0.0000 0.3374 0.0000
vt 0.8966 0.0000 0.0000
vt 0.9313 1.0000 0.0000
vt 0.0687 1.0000 0.0000
vt 0.6626 0.0000 0.0000
vt 0.7758 1.0000 0.0000
vt 0.2242 1.0000 0.0000
vt 0.3374 0.0000 0.0000
vt 0.0687 0.0000 0.0000
vt 0.9313 0.0000 0.0000
vt 0.5000 0.0000 0.0000
vt 1.0000 0.7758 0.0000
vt 0.5000 0.7758 0.0000
vt 0.5000 0.2242 0.0000
vt 1.0000 0.2242 0.0000
vt 0.5000 1.0000 0.0000
vt 0.0000 0.2242 0.0000
vt 0.0000 0.7758 0.0000
vt 0.0481 1.0008 0.0000
vt 0.0828 -0.0009 0.0000
vt 0.9167 -0.0011 0.0000
vt 0.9512 0.9972 0.0000
vt 0.1591 0.9910 0.0000
vt 0.2718 -0.0035 0.0000
vt 0.0488 0.9972 0.0000
vt 0.0833 -0.0011 0.0000
vt 1.0000 0.2035 0.0000
vt 1.0000 0.7965 0.0000
vt 0.9376 1.0000 0.0000
vt 0.0624 0.0000 0.0000
vt 0.0624 1.0000 0.0000
vt 0.0000 0.7965 0.0000
vt 0.0000 0.2035 0.0000
vt 0.9376 0.0000 0.0000
vt 0.9585 1.0000 0.0000
vt 0.0415 1.0000 0.0000
vt 0.7965 0.0000 0.0000
vt 0.8647 1.0000 0.0000
vt 0.1353 1.0000 0.0000
vt 0.2035 0.0000 0.0000
vt 0.8027 1.0000 0.0000
vt 0.1973 1.0000 0.0000
vt 0.0000 0.6309 0.0000
vt 0.1973 0.0000 0.0000
vt 0.0000 0.3691 0.0000
vt 0.8027 0.0000 0.0000
vt 1.0000 0.3691 0.0000
vt 1.0000 0.6309 0.0000
vt 0.9585 0.0000 0.0000
vt 0.0415 0.0000 0.0000
vt 1.0000 0.8647 0.0000
vt 1.0000 0.1353 0.0000
vt 0.0000 0.1353 0.0000
vt 0.0000 0.8647 0.0000
vt 0.0307 0.9985 0.0000
vt 0.0516 -0.0006 0.0000
vt 0.9487 -0.0004 0.0000
vt 0.9696 1.0005 0.0000
vt 0.0991 1.0017 0.0000
vt 0.1673 -0.0013 0.0000
vt 0.0304 1.0005 0.0000
vt 0.0513 -0.0004 0.0000
vt 0.8030 0.9299 0.0000
vt 0.1970 0.9299 0.0000
vt 0.1970 0.0701 0.0000
vt 0.8030 0.0701 0.0000
vt 0.8030 0.0157 0.0000
vt 0.8030 0.9843 0.0000
vt 0.1970 0.9843 0.0000
vt 0.1970 0.0157 0.0000
vt 0.9299 0.0157 0.0000
vt 0.9299 0.9843 0.0000
vt 0.0701 0.9843 0.0000
vt 0.0701 0.0157 0.0000
vt -0.0398 0.0459 0.0000
vt 0.1267 -0.0976 0.0000
vt -0.0398 0.0652 0.0000
vt 0.1267 -0.0431 0.0000
vt -0.1251 0.1107 0.0000
vt -0.1251 -0.0226 0.0000
vt 0.1267 1.0431 0.0000
vt -0.0398 0.9348 0.0000
vt 0.1267 1.0976 0.0000
vt -0.0398 0.9541 0.0000
vt -0.1251 1.0226 0.0000
vt -0.1251 0.8893 0.0000
vt 0.9299 -0.1650 0.0000
vt 0.0701 -0.1650 0.0000
vt 0.1970 0.2943 0.0000
vt 0.8030 0.2943 0.0000
vt 0.8030 0.7057 0.0000
vt 0.1970 0.7057 0.0000
vt 0.9299 1.1650 0.0000
vt 0.0701 1.1650 0.0000
vt 0.1502 0.9843 0.0000
vt 0.1502 0.0157 0.0000
vt 0.8498 0.0157 0.0000
vt 0.8498 0.9843 0.0000
vt 0.0535 0.9843 0.0000
vt 0.0535 0.0157 0.0000
vt 0.0490 0.9990 0.0000
vt 0.0837 -0.0010 0.0000
vt 0.9163 -0.0010 0.0000
vt 0.9510 0.9990 0.0000
vt 0.1598 0.9969 0.0000
vt 0.2729 -0.0031 0.0000
# 112 texture coords

o Box008
g Box008
usemtl fence_wire_027177027
s 1
f 1/1/1 2/2/2 3/3/3 4/4/4 
f 3/3/3 5/5/5 6/6/6 4/4/4 
f 6/6/6 7/7/7 4/4/4 
f 8/8/8 1/1/1 4/4/4 
s 2
f 8/4/8 4/8/4 9/9/9 10/10/10 
f 6/11/6 11/12/11 12/13/12 7/14/7 
f 3/8/3 13/9/13 14/10/14 5/4/5 
f 1/11/1 15/12/15 16/13/16 2/14/2 
f 10/15/10 9/16/9 17/17/17 
s 1
f 11/18/11 18/19/18 19/20/19 12/21/12 
s 2
f 14/9/14 13/10/13 20/22/20 
s 4
f 15/23/15 19/20/19 18/19/18 16/24/16 
s 8
f 7/14/7 12/13/12 9/25/9 4/26/4 
f 15/12/15 1/11/1 8/27/8 10/28/10 
f 5/4/5 14/10/14 11/29/11 6/30/6 
f 2/14/2 16/13/16 13/31/13 3/32/3 
s 16
f 15/23/15 10/15/10 17/17/17 19/20/19 
s 8
f 12/21/12 19/20/19 17/17/17 9/16/9 
f 11/18/11 14/9/14 20/22/20 18/19/18 
s 16
f 16/24/16 18/19/18 20/22/20 13/10/13 
s 1
f 21/33/21 22/34/22 23/35/23 24/36/24 
f 23/35/23 25/37/25 26/38/26 24/36/24 
f 26/38/26 27/39/27 24/36/24 
f 28/40/28 21/33/21 24/36/24 
s 2
f 24/40/24 29/41/29 30/42/30 28/36/28 
f 26/43/26 31/44/31 32/45/32 27/46/27 
f 25/36/25 23/40/23 33/41/33 34/42/34 
f 21/43/21 35/44/35 36/45/36 22/46/22 
s 1
f 37/47/37 38/48/38 39/49/39 40/50/40 
f 39/49/39 41/51/41 40/50/40 
f 40/50/40 42/52/42 43/53/43 37/47/37 
f 44/54/44 37/47/37 43/53/43 
s 2
f 29/55/29 42/52/42 40/50/40 30/56/30 
s 4
f 31/57/31 44/54/44 43/53/43 32/58/32 
s 2
f 34/41/34 33/42/33 38/48/38 37/47/37 
f 35/59/35 41/51/41 39/49/39 36/60/36 
s 8
f 27/46/27 32/45/32 29/61/29 24/62/24 
s 4
f 35/44/35 21/43/21 28/63/28 30/64/30 
s 8
f 25/36/25 34/42/34 31/65/31 26/66/26 
s 4
f 22/46/22 36/45/36 33/67/33 23/68/23 
f 30/56/30 40/50/40 41/51/41 35/59/35 
s 16
f 29/55/29 32/58/32 43/53/43 42/52/42 
f 34/41/34 37/47/37 44/54/44 31/57/31 
s 4
f 33/42/33 36/60/36 39/49/39 38/48/38 
s 1
f 45/69/45 46/70/46 47/71/47 48/72/48 
f 49/72/49 50/69/50 51/70/51 52/71/52 
f 53/73/53 54/74/54 55/75/55 56/76/56 
f 57/77/57 58/78/58 59/79/59 60/80/60 
f 61/73/61 62/74/62 63/75/63 64/76/64 
f 65/77/65 66/78/66 67/79/67 68/80/68 
s 2
f 56/76/56 65/81/65 48/82/48 
f 47/71/47 60/83/60 53/84/53 
f 68/80/68 61/85/61 45/86/45 
f 46/70/46 64/87/64 57/88/57 
f 55/75/55 52/89/52 66/90/66 
f 59/79/59 49/91/49 54/92/54 
f 67/79/67 51/91/51 62/92/62 
f 63/75/63 50/89/50 58/90/58 
s 4
f 48/93/48 65/77/65 68/80/68 45/94/45 
s 8
f 61/73/61 64/76/64 46/95/46 45/96/45 
s 4
f 57/77/57 60/80/60 47/94/47 46/93/46 
s 8
f 53/73/53 56/76/56 48/95/48 47/96/47 
s 4
f 55/75/55 54/74/54 49/97/49 52/98/52 
s 8
f 59/79/59 58/78/58 50/99/50 49/100/49 
s 4
f 63/75/63 62/74/62 51/97/51 50/98/50 
s 8
f 51/100/51 67/79/67 66/78/66 52/99/52 
s 16
f 60/80/60 59/79/59 54/101/54 53/102/53 
f 66/78/66 65/77/65 56/103/56 55/104/55 
f 64/76/64 63/75/63 58/105/58 57/106/57 
f 68/80/68 67/79/67 62/101/62 61/102/61 
s 1
f 69/69/69 70/70/70 71/71/71 72/72/72 
f 73/72/73 74/69/74 75/70/75 76/71/76 
f 77/73/77 78/74/78 79/75/79 80/76/80 
f 81/77/81 82/78/82 83/79/83 84/80/84 
f 85/73/85 86/74/86 87/75/87 88/76/88 
f 89/77/89 90/78/90 91/79/91 92/80/92 
s 2
f 80/76/80 89/81/89 72/82/72 
f 71/71/71 84/83/84 77/84/77 
f 92/80/92 85/85/85 69/86/69 
f 70/70/70 88/87/88 81/88/81 
f 79/75/79 76/89/76 90/90/90 
f 83/79/83 73/91/73 78/92/78 
f 91/79/91 75/91/75 86/92/86 
f 87/75/87 74/89/74 82/90/82 
s 4
f 72/93/72 89/77/89 92/80/92 69/94/69 
s 8
f 85/73/85 88/76/88 70/95/70 69/96/69 
s 4
f 81/77/81 84/80/84 71/94/71 70/93/70 
s 8
f 77/73/77 80/76/80 72/95/72 71/96/71 
s 4
f 79/75/79 78/74/78 73/97/73 76/98/76 
s 8
f 83/79/83 82/78/82 74/99/74 73/100/73 
s 4
f 87/75/87 86/74/86 75/97/75 74/98/74 
s 8
f 75/100/75 91/79/91 90/78/90 76/99/76 
s 16
f 84/80/84 83/79/83 78/101/78 77/102/77 
f 90/78/90 89/77/89 80/103/80 79/104/79 
f 88/76/88 87/75/87 82/105/82 81/106/81 
f 92/80/92 91/79/91 86/101/86 85/102/85 
s 1
f 93/1/93 94/2/94 95/3/95 96/4/96 
f 95/3/95 97/5/97 98/6/98 96/4/96 
f 98/6/98 99/7/99 96/4/96 
f 100/8/100 93/1/93 96/4/96 
s 2
f 96/8/96 101/9/101 102/10/102 100/4/100 
f 98/11/98 103/12/103 104/13/104 99/14/99 
f 95/8/95 105/9/105 106/10/106 97/4/97 
f 93/11/93 107/12/107 108/13/108 94/14/94 
f 102/15/102 101/16/101 109/17/109 
s 1
f 103/18/103 110/19/110 111/20/111 104/21/104 
s 2
f 106/9/106 105/10/105 112/22/112 
s 4
f 107/23/107 111/20/111 110/19/110 108/24/108 
s 8
f 99/14/99 104/13/104 101/107/101 96/108/96 
s 16
f 107/12/107 93/11/93 100/109/100 102/110/102 
s 8
f 97/4/97 106/10/106 103/111/103 98/112/98 
s 16
f 94/14/94 108/13/108 105/107/105 95/108/95 
f 107/23/107 102/15/102 109/17/109 111/20/111 
s 8
f 104/21/104 111/20/111 109/17/109 101/16/101 
f 103/18/103 106/9/106 112/22/112 110/19/110 
s 16
f 108/24/108 110/19/110 112/22/112 105/10/105 
s 1
f 113/1/113 114/2/114 115/3/115 116/4/116 
f 115/3/115 117/5/117 118/6/118 116/4/116 
f 118/6/118 119/7/119 116/4/116 
f 120/8/120 113/1/113 116/4/116 
s 2
f 120/4/120 116/8/116 121/9/121 122/10/122 
f 118/11/118 123/12/123 124/13/124 119/14/119 
f 115/8/115 125/9/125 126/10/126 117/4/117 
f 113/11/113 127/12/127 128/13/128 114/14/114 
f 122/15/122 121/16/121 129/17/129 
s 1
f 123/18/123 130/19/130 131/20/131 124/21/124 
s 2
f 126/9/126 125/10/125 132/22/132 
s 4
f 127/23/127 131/20/131 130/19/130 128/24/128 
s 8
f 119/14/119 124/13/124 121/25/121 116/26/116 
f 127/12/127 113/11/113 120/27/120 122/28/122 
f 117/4/117 126/10/126 123/29/123 118/30/118 
f 114/14/114 128/13/128 125/31/125 115/32/115 
s 16
f 127/23/127 122/15/122 129/17/129 131/20/131 
s 8
f 124/21/124 131/20/131 129/17/129 121/16/121 
f 123/18/123 126/9/126 132/22/132 130/19/130 
s 16
f 128/24/128 130/19/130 132/22/132 125/10/125 
# 104 polygons - 32 triangles

