# 3ds Max Wavefront OBJ Exporter v0.97b - (c)2007 guruware
# File Created: 04.10.2020 01:59:57

mtllib Rocher3.mtl

#
# object Object002
#

v  45.0052 93.7493 13.7233
v  40.0380 99.0432 14.8399
v  37.9005 92.3560 19.6390
v  44.1638 91.4735 -6.7452
v  46.6790 95.9188 -15.5822
v  42.9373 102.9279 -10.5900
v  10.6745 85.7068 33.6593
v  19.5081 84.0452 32.8786
v  17.5046 91.4706 30.3898
v  -29.6043 0.0000 46.5251
v  -37.4235 0.0000 44.1974
v  -53.3927 0.0000 5.6487
v  -49.8692 -0.0013 1.0041
v  -0.3860 -0.0159 -5.3195
v  10.7492 -0.0014 42.8248
v  4.8730 0.0000 46.5947
v  7.8139 43.4468 40.0374
v  -21.6327 54.6019 39.3245
v  47.4928 -0.0038 22.6137
v  50.7755 -0.0285 2.0234
v  47.4239 46.3560 -2.4216
v  46.2318 47.5218 18.1070
v  32.5406 0.0000 -57.9803
v  1.7649 0.0000 -58.3605
v  4.2073 51.8849 -53.9690
v  31.7903 47.6971 -47.3107
v  -71.4088 1.7838 -45.9893
v  -71.8719 2.2316 -12.2676
v  -64.0620 50.9378 -14.9027
v  -66.6999 50.6561 -41.5799
v  -53.8850 0.0000 -3.5938
v  -47.9660 0.0000 -42.5846
v  -42.6932 0.0000 -48.4839
v  -7.4147 0.0000 -58.1455
v  -3.4760 -0.0012 -54.6884
v  51.4629 -0.0294 -10.0192
v  36.9681 -0.0029 -52.2462
v  36.3283 47.9030 -41.5060
v  49.0378 48.6089 -12.8392
v  -70.3451 2.4117 10.2187
v  -58.5353 2.7657 36.6817
v  -50.3296 52.0736 29.7019
v  -62.5149 50.1334 7.5417
v  46.6760 -0.0308 -7.1498
v  40.2788 0.0000 28.3027
v  13.8249 0.0000 45.4171
v  39.0731 46.8174 23.9109
v  16.7058 42.6045 39.0611
v  -20.5233 1.3336 -61.9054
v  -50.2739 1.7006 -60.5194
v  -45.2470 50.3245 -56.8144
v  -18.2418 53.0945 -57.5114
v  -20.4159 94.8378 38.8355
v  -27.2225 97.1745 33.5076
v  -29.3604 63.8054 36.7466
v  -4.9717 60.4015 -53.7971
v  -22.3827 101.7141 33.4859
v  15.5282 92.0647 29.7995
v  2.6061 107.2993 -8.3705
v  -33.5867 101.2755 -5.4470
v  40.9608 103.5220 -11.1803
v  30.6541 99.6000 -45.4818
v  1.6846 107.6057 -45.5420
v  38.0616 99.6374 14.2496
v  -32.5560 101.4531 -35.8285
v  -38.1535 96.4467 -35.0397
v  -33.0383 95.9334 -41.0103
v  30.7535 94.0915 -50.9496
v  35.3989 94.5004 -45.0762
v  -38.4636 96.0383 -9.4695
v  -38.0356 94.1228 -0.1452
v  6.5830 102.3525 -49.6975
v  -2.5955 102.1005 -49.5674
v  -46.0676 63.2294 -6.5723
v  -42.9918 63.4364 -38.7600
v  -45.6079 62.2584 2.7116
v  -37.7989 63.1762 -44.6954
v  -62.5149 50.6376 7.5417
v  -50.3296 52.5778 29.7019
v  -64.0620 51.4420 -14.9027
v  -66.6999 51.1603 -41.5799
# 81 vertices

vn 0.7330 0.6379 0.2362
vn 0.6350 0.5339 0.5583
vn 0.4209 0.4362 0.7953
vn 0.9872 0.1346 0.0861
vn 0.9034 0.2202 0.3679
vn 0.9521 0.1840 0.2444
vn 0.1476 0.3499 0.9251
vn 0.2903 0.3736 0.8810
vn 0.3289 0.3787 0.8651
vn -0.1225 -0.6191 0.7757
vn -0.2537 -0.6519 0.7146
vn -0.0739 -0.9971 0.0164
vn -0.0003 -1.0000 0.0000
vn 0.0001 -1.0000 0.0003
vn 0.0471 -0.6383 0.7683
vn 0.0766 0.1437 0.9867
vn -0.0900 0.0892 0.9919
vn 0.6796 -0.6060 0.4133
vn 0.7409 -0.6665 0.0827
vn 0.9902 0.0823 0.1124
vn 0.8871 0.0669 0.4568
vn 0.3589 -0.5422 -0.7598
vn -0.0045 -0.6723 -0.7403
vn 0.1513 0.0763 -0.9855
vn 0.5594 0.0784 -0.8252
vn -0.7384 -0.5463 -0.3953
vn -0.8085 -0.5878 0.0283
vn -0.9831 0.1622 0.0849
vn -0.8385 0.2973 -0.4566
vn -0.0652 -0.9979 -0.0013
vn -0.0415 -0.9989 -0.0234
vn -0.0369 -0.9975 -0.0598
vn 0.0816 -0.7210 -0.6881
vn -0.0000 -1.0000 -0.0003
vn 0.7530 -0.6506 -0.0979
vn 0.6789 -0.6265 -0.3829
vn 0.8609 0.0510 -0.5062
vn 0.9912 0.0421 -0.1256
vn -0.8053 -0.5557 0.2067
vn -0.6169 -0.4676 0.6331
vn -0.6293 0.2106 0.7481
vn -0.9459 0.1707 0.2759
vn -0.0002 -1.0000 -0.0003
vn 0.4355 -0.6618 0.6102
vn 0.0002 -1.0000 0.0003
vn 0.5411 0.0882 0.8363
vn 0.5849 0.0907 0.8061
vn 0.5474 0.0872 0.8323
vn 0.0680 -0.5371 -0.8407
vn -0.2766 -0.5681 -0.7751
vn -0.3007 0.4157 -0.8584
vn 0.0391 0.2980 -0.9538
vn 0.0001 -1.0000 0.0005
vn -0.1286 0.3272 0.9362
vn -0.7568 0.4117 0.5078
vn -0.4511 0.1272 0.8834
vn 0.1292 0.1378 0.9820
vn 0.1210 0.1385 0.9829
vn -0.0099 0.1633 -0.9865
vn -0.1638 0.8894 0.4267
vn 0.1477 0.8195 0.5537
vn -0.0282 0.9809 0.1927
vn -0.5162 0.8530 0.0775
vn 0.2983 0.9508 -0.0834
vn 0.4382 0.7792 -0.4481
vn -0.0059 0.9154 -0.4026
vn -0.2411 0.9631 0.1196
vn -0.4449 0.8396 -0.3118
vn -0.8456 0.4455 -0.2941
vn -0.5009 0.3829 -0.7762
vn 0.3983 0.2506 -0.8824
vn 0.8267 0.3032 -0.4740
vn -0.8841 0.4646 0.0497
vn -0.7697 0.6124 0.1804
vn 0.0767 0.4476 -0.8909
vn -0.1964 0.4226 -0.8848
vn 0.2536 0.3531 0.9006
vn 0.9247 0.3296 -0.1905
vn 0.1611 0.1366 0.9774
vn 0.9828 0.0866 0.1629
vn 0.9223 0.0607 0.3818
vn -0.9742 0.2256 -0.0022
vn -0.7568 0.4897 -0.4329
vn -0.9532 0.2427 0.1803
vn -0.9364 0.2450 0.2511
vn 0.5982 0.0901 0.7963
vn 0.5563 0.0857 0.8266
vn -0.4379 0.5052 -0.7437
vn 0.1131 0.1391 0.9838
vn -0.5151 0.8315 0.2081
vn -0.5278 0.8342 0.1596
vn -0.5340 0.8342 0.1379
vn -0.5155 0.8306 0.2108
vn -0.5633 0.8248 0.0497
vn -0.5648 0.8234 0.0548
vn -0.4559 0.8892 -0.0378
vn -0.4629 0.8856 0.0364
# 97 vertex normals

vt 0.0005 0.3962 0.0000
vt 0.0197 0.3758 0.0000
vt 0.0279 0.4016 0.0000
vt 0.1801 0.4265 0.0000
vt 0.2142 0.4437 0.0000
vt 0.1950 0.4707 0.0000
vt 0.1329 0.4273 0.0000
vt 0.0989 0.4337 0.0000
vt 0.1066 0.4050 0.0000
vt 0.0969 0.4557 0.0000
vt 0.1012 0.4353 0.0000
vt 0.1635 0.4188 0.0000
vt 0.1334 0.4098 0.0000
vt 0.0718 0.2611 0.0000
vt 0.0854 0.2432 0.0000
vt 0.2762 0.2188 0.0000
vt 0.3192 0.4045 0.0000
vt 0.2965 0.4190 0.0000
vt 0.1676 0.9974 0.0000
vt 0.0349 0.9881 0.0000
vt 0.0353 0.8201 0.0000
vt 0.1516 0.7851 0.0000
vt 0.2846 0.9961 0.0000
vt 0.2845 0.9167 0.0000
vt 0.4635 0.8995 0.0000
vt 0.4680 0.9787 0.0000
vt 0.9938 0.0056 0.0000
vt 0.9938 0.1243 0.0000
vt 0.7936 0.1149 0.0000
vt 0.8098 0.0085 0.0000
vt 0.9635 0.9908 0.0000
vt 0.8335 0.9891 0.0000
vt 0.8436 0.8012 0.0000
vt 0.9465 0.8023 0.0000
vt 0.0699 0.2254 0.0000
vt 0.0927 0.0750 0.0000
vt 0.1131 0.0523 0.0000
vt 0.2491 0.0150 0.0000
vt 0.2643 0.0283 0.0000
vt 0.2845 0.8702 0.0000
vt 0.2846 0.7073 0.0000
vt 0.4694 0.7488 0.0000
vt 0.4721 0.8593 0.0000
vt 0.7467 0.9884 0.0000
vt 0.6446 0.9870 0.0000
vt 0.6716 0.7968 0.0000
vt 0.7570 0.8043 0.0000
vt 0.4578 0.2117 0.0000
vt 0.4736 0.2471 0.0000
vt 0.4609 0.3265 0.0000
vt 0.4331 0.3485 0.0000
vt 0.3311 0.4145 0.0000
vt 0.8374 0.4063 0.0000
vt 0.9588 0.4105 0.0000
vt 0.9579 0.5919 0.0000
vt 0.8543 0.5719 0.0000
vt 0.9886 0.2103 0.0000
vt 0.9872 0.3250 0.0000
vt 0.7997 0.3056 0.0000
vt 0.7890 0.2015 0.0000
vt 0.2845 0.0142 0.0000
vt 0.4033 0.0156 0.0000
vt 0.4203 0.0378 0.0000
vt 0.4762 0.2006 0.0000
vt 0.9941 0.4120 0.0000
vt 0.9931 0.5962 0.0000
vt 0.1578 0.6300 0.0000
vt 0.1846 0.6228 0.0000
vt 0.1838 0.7518 0.0000
vt 0.2846 0.6852 0.0000
vt 0.4686 0.7264 0.0000
vt 0.9869 0.4065 0.0000
vt 0.7984 0.3884 0.0000
vt 0.0005 0.9857 0.0000
vt 0.0009 0.8210 0.0000
vt 0.9938 0.1597 0.0000
vt 0.7608 0.1503 0.0000
vt 0.5545 0.2592 0.0000
vt 0.7007 0.2734 0.0000
vt 0.6509 0.4206 0.0000
vt 0.5113 0.4093 0.0000
vt 0.7988 0.4315 0.0000
vt 0.7591 0.5638 0.0000
vt 0.6473 0.5640 0.0000
vt 0.7877 0.3334 0.0000
vt 0.5153 0.5265 0.0000
vt 0.1672 0.6041 0.0000
vt 0.1943 0.5235 0.0000
vt 0.2116 0.5470 0.0000
vt 0.1827 0.5516 0.0000
vt 0.5904 0.2000 0.0000
vt 0.5649 0.1842 0.0000
vt 0.5885 0.1711 0.0000
vt 0.2807 0.4768 0.0000
vt 0.2522 0.4659 0.0000
vt 0.2684 0.4448 0.0000
vt 0.5787 0.1246 0.0000
vt 0.5990 0.1057 0.0000
vt 0.5999 0.1411 0.0000
vt 0.0357 0.6568 0.0000
vt 0.0187 0.6310 0.0000
vt 0.5230 0.2567 0.0000
vt 0.4925 0.2568 0.0000
vt 0.4937 0.5235 0.0000
vt 0.4925 0.4249 0.0000
vt 0.5218 0.0577 0.0000
vt 0.5616 0.0563 0.0000
vt 0.3634 0.4063 0.0000
vt 0.3804 0.4253 0.0000
vt 0.2323 0.6776 0.0000
vt 0.2034 0.6682 0.0000
vt 0.6375 0.8828 0.0000
vt 0.6463 0.9618 0.0000
vt 0.6308 0.0125 0.0000
vt 0.4009 0.6792 0.0000
vt 0.4121 0.5527 0.0000
vt 0.5107 0.5511 0.0000
vt 0.5251 0.6784 0.0000
vt 0.6492 0.7350 0.0000
vt 0.6546 0.8488 0.0000
vt 0.2338 0.6770 0.0000
vt 0.2463 0.5483 0.0000
vt 0.3761 0.5600 0.0000
vt 0.3651 0.6830 0.0000
vt 0.9569 0.7684 0.0000
vt 0.8708 0.7331 0.0000
vt 0.7501 0.2769 0.0000
vt 0.6237 0.2585 0.0000
vt 0.9921 0.7753 0.0000
vt 0.1977 0.9995 0.0000
vt 0.6476 0.7123 0.0000
vt 0.5337 0.5531 0.0000
vt 0.5480 0.6794 0.0000
vt 0.0012 0.6608 0.0000
vt 0.0519 0.3808 0.0000
vt 0.0064 0.2787 0.0000
vt 0.2614 0.8026 0.0000
vt 0.2797 0.9945 0.0000
vt 0.0833 0.4850 0.0000
vt 0.0725 0.5135 0.0000
vt 0.0005 0.5052 0.0000
vt 0.0212 0.4073 0.0000
vt 0.0838 0.0058 0.0000
vt 0.1986 0.0005 0.0000
vt 0.0023 0.0619 0.0000
vt 0.0005 0.1920 0.0000
vt 0.8555 0.7024 0.0000
vt 0.7242 0.6398 0.0000
vt 0.7428 0.5746 0.0000
vt 0.8283 0.6216 0.0000
vt 0.6884 0.6380 0.0000
vt 0.6562 0.5686 0.0000
vt 0.5642 0.6499 0.0000
vt 0.5533 0.5584 0.0000
# 154 texture coords

o Object002
g Object002
usemtl wire_228184153
s 50
f 1/1/1 2/2/2 3/3/3 
f 4/4/4 5/5/5 6/6/6 
f 7/7/7 8/8/8 9/9/9 
f 2/10/2 1/11/1 4/4/4 6/6/6 
f 9/9/9 8/8/8 3/3/3 2/2/2 
s 49
f 10/12/10 11/13/11 12/14/12 13/15/13 14/16/13 15/17/14 16/18/15 
s 50
f 10/19/10 16/20/15 17/21/16 18/22/17 
f 19/23/18 20/24/19 21/25/20 22/26/21 
s 52
f 23/27/22 24/28/23 25/29/24 26/30/25 
s 50
f 27/31/26 28/32/27 29/33/28 30/34/29 
s 49
f 13/15/13 31/35/30 32/36/31 33/37/32 34/38/33 35/39/34 14/16/13 
s 50
f 36/40/35 37/41/36 38/42/37 39/43/38 
f 40/44/39 41/45/40 42/46/41 43/47/42 
s 49
f 14/16/13 44/48/43 20/49/19 19/50/18 45/51/44 46/52/45 15/17/14 
s 50
f 46/53/46 45/54/44 47/55/47 48/56/48 
s 52
f 49/57/49 50/58/50 51/59/51 52/60/52 
s 49
f 35/39/34 24/61/23 23/62/22 37/63/36 36/64/35 44/48/43 14/16/13 
f 12/14/12 31/35/30 13/15/13 
f 20/49/19 44/48/43 36/64/35 
f 16/18/15 15/17/14 46/52/53 
f 34/38/33 24/61/23 35/39/34 
s 50
f 45/54/44 19/65/18 22/66/21 47/55/47 
f 53/67/54 54/68/55 55/69/56 18/22/17 
f 37/41/36 23/70/22 26/71/25 38/42/37 
s 56
f 50/58/50 27/72/26 30/73/29 51/59/51 
s 50
f 20/24/19 36/40/35 39/43/38 21/25/20 
f 28/32/27 40/44/39 43/47/42 29/33/28 
f 16/20/15 46/74/57 48/75/58 17/21/16 
s 52
f 24/28/23 34/76/33 56/77/59 25/29/24 
s 50
f 57/78/60 58/79/61 59/80/62 60/81/63 
s 49
f 61/82/64 62/83/65 63/84/66 59/80/62 
s 50
f 58/79/61 64/85/67 61/82/64 59/80/62 
s 49
f 63/84/66 65/86/68 60/81/63 59/80/62 
s 50
f 53/67/54 57/87/60 54/68/55 
f 66/88/69 65/89/68 67/90/70 
f 68/91/71 62/92/65 69/93/72 
f 60/94/63 70/95/73 71/96/74 
f 63/97/66 72/98/75 73/99/76 
f 57/87/60 53/67/54 7/100/77 58/101/61 
f 62/92/65 68/91/71 72/102/75 63/103/66 
f 65/86/68 66/104/69 70/105/73 60/81/63 
f 61/106/64 5/107/78 69/93/72 62/92/65 
f 60/94/63 71/96/74 54/108/55 57/109/60 
f 63/110/66 73/111/76 67/90/70 65/89/68 
f 17/21/16 7/100/79 53/67/54 18/22/17 
f 21/25/20 4/112/80 1/113/81 22/26/21 
s 52
f 25/29/24 72/98/75 68/114/71 26/30/25 
s 50
f 74/115/82 70/116/73 66/117/69 75/118/83 
f 38/42/37 69/119/72 5/120/78 39/43/38 
f 55/121/56 54/122/55 71/123/84 76/124/85 
f 47/55/47 3/125/86 8/126/87 48/56/48 
s 52
f 77/127/88 67/128/70 73/99/76 56/77/59 
s 50
f 22/66/21 1/129/81 3/125/86 47/55/47 
f 55/69/56 11/130/11 10/19/10 18/22/17 
f 26/71/25 68/131/71 69/119/72 38/42/37 
s 56
f 75/118/83 66/117/69 67/132/70 77/133/88 
s 50
f 39/43/38 5/120/78 4/112/80 21/25/20 
f 76/124/85 71/123/84 70/116/73 74/115/82 
f 48/75/58 8/134/89 7/100/79 17/21/16 
s 52
f 56/77/59 73/99/76 72/98/75 25/29/24 
s 32
f 12/14/12 11/13/11 41/135/40 40/136/39 
f 11/130/11 55/69/56 42/137/41 41/138/40 
f 75/139/83 77/140/88 51/141/51 30/142/29 
f 77/127/88 56/77/59 52/60/52 51/59/51 
f 56/77/59 34/76/33 49/57/49 52/60/52 
f 34/38/33 33/37/32 50/143/50 49/144/49 
f 33/37/32 32/36/31 27/145/26 50/143/50 
f 32/36/31 31/35/30 28/146/27 27/145/26 
f 31/35/30 12/14/12 40/136/39 28/146/27 
f 55/147/90 76/148/91 78/149/92 79/150/93 
f 76/148/91 74/151/94 80/152/95 78/149/92 
f 74/151/94 75/153/96 81/154/97 80/152/95 
# 60 polygons - 12 triangles

