# 3ds Max Wavefront OBJ Exporter v0.97b - (c)2007 guruware
# File Created: 04.10.2020 01:59:03

mtllib Rocher2.mtl

#
# object Box002
#

v  43.1346 -3.6600 46.1671
v  36.7513 -3.6600 51.6381
v  -0.8692 -3.6600 56.8008
v  -5.2988 -3.6614 52.5081
v  0.6277 -3.6768 -3.1925
v  47.0433 -3.6616 15.6545
v  50.2543 -3.6600 22.3070
v  45.1099 46.2824 16.8360
v  36.5373 47.5444 31.6344
v  34.5020 -3.6640 -31.8482
v  11.9834 -3.6902 -57.0319
v  1.3423 52.6152 -56.1784
v  32.3809 36.1088 -32.0333
v  -50.1607 -3.6600 -61.5492
v  -63.0833 -3.6600 -24.6132
v  -53.2423 42.4694 -13.7954
v  -41.6871 46.0991 -48.8401
v  -50.8398 -3.6600 44.9558
v  -10.6398 -3.6600 56.1403
v  -17.1124 56.1091 43.9327
v  -47.0797 46.6639 40.0809
v  -56.3643 -3.6600 38.6659
v  -64.0270 -3.6600 -14.9440
v  -59.8940 -3.6613 -18.6406
v  3.4320 -3.6911 -61.1545
v  -43.5462 -3.6631 -65.5400
v  -34.4814 48.1453 -54.3703
v  -9.4448 55.3702 -60.8908
v  28.3638 48.6669 37.4202
v  -5.8061 56.4011 44.7877
v  7.8297 -3.6926 -55.5602
v  39.2737 -3.6600 -22.8179
v  50.1580 -3.6600 12.7543
v  38.4020 36.0889 -22.3942
v  45.9500 44.1576 6.4005
v  -53.2331 44.4713 33.2571
v  -54.8530 42.2137 -3.0929
v  1.1834 139.0722 0.7473
v  3.9481 140.0838 -4.3400
v  -7.4674 137.5219 -7.7558
v  -8.3513 138.0394 2.8594
v  -6.1690 136.4615 -18.9153
v  -13.5917 132.5707 -17.9686
v  -17.3938 133.0136 -8.7309
v  2.1297 136.3163 -12.5562
v  -16.2908 135.1629 1.6350
v  2.7071 137.9669 1.0540
v  0.7591 137.3931 2.5507
v  2.5307 134.4944 -14.3045
v  3.7725 135.4381 -12.0673
v  -16.2096 134.1401 3.5070
v  -17.4826 133.7041 1.7339
v  -14.7548 130.7557 -18.1382
v  -12.9987 131.2278 -19.2622
v  -4.3078 134.6784 -19.4026
v  -6.8954 134.2956 -20.4497
v  -9.5628 136.2154 4.3923
v  -7.0009 136.7072 4.5646
v  -18.0430 131.3162 -10.2199
v  -18.3429 131.8289 -7.5925
v  4.8584 138.8159 -2.5736
v  5.1620 138.5829 -5.0983
v  -34.4000 99.6077 25.3247
v  -37.5182 98.0308 19.7470
v  -19.8678 106.4628 31.3717
v  -13.8277 106.7815 32.3635
v  7.7377 101.4875 24.6952
v  13.8124 100.6627 19.5473
v  21.2919 99.6884 7.9567
v  22.9782 98.1626 0.5311
v  21.2936 92.4658 -23.7167
v  18.0619 92.4699 -32.2310
v  -1.2493 103.2304 -39.2924
v  -8.5340 104.9671 -42.1668
v  -25.3795 100.0830 -38.9430
v  -30.2305 98.7104 -35.7604
v  -39.2685 97.4952 -13.7305
v  -39.9958 97.7412 -6.5311
# 78 vertices

vn 0.6887 -0.5483 0.4744
vn 0.3516 -0.5313 0.7707
vn 0.0310 -0.6092 0.7924
vn -0.0000 -1.0000 0.0003
vn -0.0001 -1.0000 0.0003
vn 0.0004 -1.0000 -0.0000
vn 0.7674 -0.6308 0.1150
vn 0.9272 0.2814 0.2471
vn 0.7220 0.3477 0.5981
vn 0.6144 -0.6650 -0.4246
vn 0.4837 -0.6177 -0.6200
vn 0.5460 0.2007 -0.8134
vn 0.7526 0.1048 -0.6501
vn -0.6501 -0.5275 -0.5469
vn -0.7907 -0.5836 -0.1850
vn -0.9475 0.2456 -0.2047
vn -0.8099 0.2849 -0.5127
vn -0.4259 -0.6022 0.6752
vn -0.1260 -0.6162 0.7774
vn -0.1347 0.2108 0.9682
vn -0.5036 0.2265 0.8337
vn -0.7169 -0.6078 0.3414
vn -0.7948 -0.6068 0.0028
vn -0.0003 -1.0000 -0.0000
vn 0.2214 -0.6443 -0.7320
vn -0.2046 -0.5481 -0.8110
vn -0.4812 0.2931 -0.8262
vn 0.0494 0.2050 -0.9775
vn 0.4357 0.3349 0.8355
vn 0.0940 0.2298 0.9687
vn 0.0001 -1.0000 0.0000
vn 0.6805 -0.6768 -0.2809
vn 0.0004 -1.0000 -0.0001
vn 0.9553 0.0452 -0.2923
vn 0.9056 0.1296 -0.4037
vn 0.9649 0.2241 -0.1371
vn -0.9156 0.2099 0.3430
vn -0.9722 0.2296 -0.0465
vn 0.0005 -1.0000 -0.0000
vn 0.9962 0.0863 -0.0100
vn 0.1764 0.8747 0.4514
vn 0.3247 0.9428 -0.0756
vn -0.2995 0.9489 -0.0994
vn -0.2020 0.9210 0.3330
vn -0.0393 0.8526 -0.5212
vn -0.5689 0.6535 -0.4993
vn -0.6547 0.7322 -0.1879
vn 0.4511 0.7359 -0.5049
vn -0.5490 0.8243 0.1379
vn 0.5219 0.6074 0.5989
vn 0.2507 0.6153 0.7473
vn 0.5535 0.5650 -0.6119
vn 0.6728 0.5719 -0.4693
vn -0.4835 0.6908 0.5376
vn -0.7962 0.5875 0.1447
vn -0.6798 0.5493 -0.4860
vn -0.4769 0.5526 -0.6835
vn 0.4087 0.5614 -0.7196
vn -0.1232 0.6071 -0.7850
vn -0.2486 0.7075 0.6615
vn -0.0039 0.7298 0.6837
vn -0.7858 0.5460 -0.2906
vn -0.8309 0.5471 -0.1017
vn 0.7038 0.6381 0.3121
vn 0.8075 0.5524 -0.2070
vn -0.6899 0.4667 0.5534
vn -0.8776 0.4289 0.2143
vn -0.3573 0.4871 0.7969
vn 0.0868 0.4716 0.8776
vn 0.4960 0.4467 0.7446
vn 0.6894 0.4517 0.5663
vn 0.8498 0.4328 0.3010
vn 0.9183 0.3956 -0.0139
vn 0.9061 0.3440 -0.2462
vn 0.6905 0.2915 -0.6620
vn 0.4627 0.4140 -0.7839
vn 0.0599 0.4832 -0.8735
vn -0.4374 0.4588 -0.7734
vn -0.7326 0.4298 -0.5279
vn -0.8962 0.3837 -0.2225
vn -0.9169 0.3990 -0.0131
# 81 vertex normals

vt 0.0844 0.1696 0.0000
vt 0.1061 0.1476 0.0000
vt 0.2420 0.1169 0.0000
vt 0.2596 0.1312 0.0000
vt 0.2554 0.3367 0.0000
vt 0.0797 0.2824 0.0000
vt 0.0659 0.2591 0.0000
vt 0.2961 0.9859 0.0000
vt 0.2060 0.9859 0.0000
vt 0.1883 0.8026 0.0000
vt 0.2460 0.7979 0.0000
vt 0.9877 0.0810 0.0000
vt 0.9878 0.1742 0.0000
vt 0.7811 0.2126 0.0000
vt 0.8417 0.0888 0.0000
vt 0.9880 0.3828 0.0000
vt 0.9880 0.5231 0.0000
vt 0.8186 0.5582 0.0000
vt 0.8053 0.4254 0.0000
vt 0.2973 0.9615 0.0000
vt 0.2973 0.8101 0.0000
vt 0.5167 0.8390 0.0000
vt 0.4820 0.9499 0.0000
vt 0.2780 0.1162 0.0000
vt 0.4285 0.1445 0.0000
vt 0.4507 0.1657 0.0000
vt 0.4956 0.3594 0.0000
vt 0.4816 0.3742 0.0000
vt 0.9878 0.2072 0.0000
vt 0.9877 0.3803 0.0000
vt 0.7975 0.3423 0.0000
vt 0.7710 0.2540 0.0000
vt 0.2973 0.7742 0.0000
vt 0.2973 0.6394 0.0000
vt 0.4894 0.6762 0.0000
vt 0.5178 0.7975 0.0000
vt 0.2455 0.5305 0.0000
vt 0.2308 0.5372 0.0000
vt 0.1405 0.4522 0.0000
vt 0.1202 0.4207 0.0000
vt 0.0693 0.2940 0.0000
vt 0.1712 0.9859 0.0000
vt 0.0464 0.9859 0.0000
vt 0.0483 0.8400 0.0000
vt 0.1499 0.8104 0.0000
vt 0.9880 0.5588 0.0000
vt 0.9880 0.7507 0.0000
vt 0.8113 0.7296 0.0000
vt 0.8196 0.5979 0.0000
vt 0.4951 0.3950 0.0000
vt 0.4595 0.5342 0.0000
vt 0.4366 0.5509 0.0000
vt 0.2634 0.5496 0.0000
vt 0.0156 0.9859 0.0000
vt 0.0159 0.8399 0.0000
vt 0.0005 0.3715 0.0000
vt 0.0372 0.3669 0.0000
vt 0.0459 0.5681 0.0000
vt 0.0150 0.5678 0.0000
vt 0.4339 0.0316 0.0000
vt 0.4331 0.0033 0.0000
vt 0.6241 0.0005 0.0000
vt 0.6312 0.0338 0.0000
vt 0.2973 0.9844 0.0000
vt 0.4740 0.9754 0.0000
vt 0.7418 0.9090 0.0000
vt 0.7340 0.8892 0.0000
vt 0.7771 0.8818 0.0000
vt 0.7756 0.9209 0.0000
vt 0.7773 0.8406 0.0000
vt 0.8039 0.8473 0.0000
vt 0.8137 0.8826 0.0000
vt 0.7443 0.8601 0.0000
vt 0.8051 0.9199 0.0000
vt 0.0270 0.0057 0.0000
vt 0.0306 0.0005 0.0000
vt 0.0360 0.0076 0.0000
vt 0.6757 0.0371 0.0000
vt 0.6725 0.0459 0.0000
vt 0.6668 0.0416 0.0000
vt 0.5767 0.9766 0.0000
vt 0.5689 0.9757 0.0000
vt 0.5724 0.9697 0.0000
vt 0.9643 0.0127 0.0000
vt 0.9715 0.0157 0.0000
vt 0.9661 0.0203 0.0000
vt 0.4799 0.2169 0.0000
vt 0.4813 0.2268 0.0000
vt 0.4734 0.2235 0.0000
vt 0.8174 0.8253 0.0000
vt 0.8107 0.8290 0.0000
vt 0.8125 0.8196 0.0000
vt 0.4863 0.5608 0.0000
vt 0.4925 0.5557 0.0000
vt 0.4906 0.5654 0.0000
vt 0.1354 0.4629 0.0000
vt 0.1260 0.4638 0.0000
vt 0.1293 0.4583 0.0000
vt 0.7361 0.9094 0.0000
vt 0.7299 0.8952 0.0000
vt 0.7069 0.0396 0.0000
vt 0.7107 0.0485 0.0000
vt 0.4879 0.5255 0.0000
vt 0.4946 0.5253 0.0000
vt 0.8040 0.9267 0.0000
vt 0.7794 0.9270 0.0000
vt 0.9890 0.0397 0.0000
vt 0.9797 0.0409 0.0000
vt 0.7700 0.9265 0.0000
vt 0.7426 0.9157 0.0000
vt 0.4837 0.5990 0.0000
vt 0.4784 0.5981 0.0000
vt 0.7299 0.8859 0.0000
vt 0.7381 0.8611 0.0000
vt 0.8032 0.7518 0.0000
vt 0.6089 0.6924 0.0000
vt 0.6147 0.6735 0.0000
vt 0.7015 0.8546 0.0000
vt 0.6764 0.9103 0.0000
vt 0.7027 0.8322 0.0000
vt 0.6833 0.7570 0.0000
vt 0.0377 0.1596 0.0000
vt 0.0669 0.1569 0.0000
vt 0.1665 0.6065 0.0000
vt 0.2120 0.6030 0.0000
vt 0.1387 0.6121 0.0000
vt 0.0511 0.6331 0.0000
vt 0.0215 0.6330 0.0000
vt 0.5953 0.2146 0.0000
vt 0.6348 0.1411 0.0000
vt 0.5890 0.2424 0.0000
vt 0.6069 0.3023 0.0000
vt 0.8273 0.0056 0.0000
vt 0.8325 0.0269 0.0000
vt 0.6167 0.5522 0.0000
vt 0.6122 0.4680 0.0000
vt 0.6157 0.5788 0.0000
vt 0.4821 0.6049 0.0000
vt 0.7167 0.8909 0.0000
vt 0.7186 0.9521 0.0000
vt 0.5740 0.9995 0.0000
vt 0.1463 0.1302 0.0000
vt 0.0628 0.0065 0.0000
vt 0.1495 0.4660 0.0000
vt 0.1013 0.4753 0.0000
vt 0.0937 0.4788 0.0000
vt 0.4806 0.1897 0.0000
vt 0.8574 0.0836 0.0000
# 148 texture coords

o Box002
g Box002
usemtl wire_228184153
s 17
f 1/1/1 2/2/2 3/3/3 4/4/4 5/5/5 6/6/6 7/7/7 
s 18
f 1/8/1 7/9/7 8/10/8 9/11/9 
f 10/12/10 11/13/11 12/14/12 13/15/13 
s 20
f 14/16/14 15/17/15 16/18/16 17/19/17 
s 18
f 18/20/18 19/21/19 20/22/20 21/23/21 
s 17
f 4/4/4 19/24/19 18/25/18 22/26/22 23/27/23 24/28/24 5/5/5 
s 18
f 25/29/25 26/30/26 27/31/27 28/32/28 
f 3/33/3 2/34/2 29/35/29 30/36/30 
s 17
f 5/5/5 31/37/31 11/38/11 10/39/10 32/40/32 33/41/33 6/6/6 
s 18
f 33/42/34 32/43/32 34/44/35 35/45/36 
s 20
f 23/46/23 22/47/22 36/48/37 37/49/38 
s 17
f 24/28/24 15/50/15 14/51/14 26/52/26 25/53/25 31/37/31 5/5/5 
f 3/3/3 19/24/19 4/4/4 
f 11/38/11 31/37/31 25/53/25 
f 7/7/7 6/6/6 33/41/39 
f 23/27/23 15/50/15 24/28/24 
s 18
f 32/43/32 10/54/10 13/55/13 34/44/35 
f 9/56/9 29/57/29 2/58/2 1/59/1 
f 26/60/26 14/61/14 17/62/17 27/63/27 
s 24
f 22/64/22 18/20/18 21/23/21 36/65/37 
s 18
f 11/13/11 25/29/25 28/32/28 12/14/12 
f 19/21/19 3/33/3 30/36/30 20/22/20 
f 7/9/7 33/42/40 35/45/36 8/10/8 
s 20
f 15/17/15 23/46/23 37/49/38 16/18/16 
s 18
f 38/66/41 39/67/42 40/68/43 41/69/44 
s 17
f 42/70/45 43/71/46 44/72/47 40/68/43 
s 18
f 39/67/42 45/73/48 42/70/45 40/68/43 
s 17
f 44/72/47 46/74/49 41/69/44 40/68/43 
s 18
f 47/75/50 38/76/41 48/77/51 
f 49/78/52 45/79/48 50/80/53 
f 51/81/54 46/82/49 52/83/55 
f 53/84/56 43/85/46 54/86/57 
f 55/87/58 56/88/59 42/89/45 
f 41/90/44 57/91/60 58/92/61 
f 44/93/47 59/94/62 60/95/63 
f 61/96/64 62/97/65 39/98/42 
f 38/66/41 47/99/50 61/100/64 39/67/42 
f 45/79/48 49/78/52 55/101/58 42/102/45 
f 43/103/46 53/104/56 59/94/62 44/93/47 
f 46/74/49 51/105/54 57/106/60 41/69/44 
f 42/107/45 56/108/59 54/86/57 43/85/46 
f 41/69/44 58/109/61 48/110/51 38/66/41 
f 44/93/47 60/95/63 52/111/55 46/112/49 
f 39/67/42 62/113/65 50/114/53 45/73/48 
s off
f 36/48/37 21/115/21 63/116/66 64/117/67 
f 21/23/21 20/22/20 65/118/68 63/119/66 
f 20/22/20 30/36/30 66/120/69 65/118/68 
f 30/36/30 29/35/29 67/121/70 66/120/69 
f 29/57/29 9/56/9 68/122/71 67/123/70 
f 9/11/9 8/10/8 69/124/72 68/125/71 
f 8/10/8 35/45/36 70/126/73 69/124/72 
f 35/45/36 34/44/35 71/127/74 70/126/73 
f 34/44/35 13/55/13 72/128/75 71/127/74 
f 13/15/13 12/14/12 73/129/76 72/130/75 
f 12/14/12 28/32/28 74/131/77 73/129/76 
f 28/32/28 27/31/27 75/132/78 74/131/77 
f 27/63/27 17/62/17 76/133/79 75/134/78 
f 17/19/17 16/18/16 77/135/80 76/136/79 
f 16/18/16 37/49/38 78/137/81 77/135/80 
f 37/49/38 36/48/37 64/117/67 78/137/81 
f 64/117/67 63/116/66 51/138/54 52/111/55 
f 63/139/66 65/140/68 57/141/60 51/81/54 
f 65/118/68 66/120/69 58/92/61 57/91/60 
f 66/142/69 67/123/70 48/77/51 58/143/61 
f 67/123/70 68/122/71 47/75/50 48/77/51 
f 68/125/71 69/124/72 61/96/64 47/144/50 
f 69/124/72 70/126/73 62/97/65 61/96/64 
f 70/126/73 71/127/74 50/145/53 62/97/65 
f 71/127/74 72/128/75 49/146/52 50/145/53 
f 72/130/75 73/129/76 55/87/58 49/147/52 
f 73/129/76 74/131/77 56/88/59 55/87/58 
f 74/148/77 75/134/78 54/86/57 56/108/59 
f 75/134/78 76/133/79 53/84/56 54/86/57 
f 76/136/79 77/135/80 59/94/62 53/104/56 
f 77/135/80 78/137/81 60/95/63 59/94/62 
f 78/137/81 64/117/67 52/111/55 60/95/63 
# 64 polygons - 12 triangles

